<svg xmlns="http://www.w3.org/2000/svg" xmlns:xlink="http://www.w3.org/1999/xlink" width="276px" height="122px" viewBox="0 0 276 122"><title>graphic / allianz logo blue</title><g id="graphic-/-allianz-logo-blue" stroke="none" stroke-width="1" fill="none" fill-rule="evenodd"><g id="Group" transform="translate(0.000000, 26.000000)" fill="#003B7D"><path d="M10.7046316,54 L13.8768287,43.3830931 L26.4136188,43.3830931 L29.3840604,54 L41,54 L29.4583555,13.4980876 C28.7951523,11.106524 27.3460567,10 24.8316099,10 L8.39943809,10 L8.39943809,13.825139 L9.78173627,13.825139 C11.4973401,13.825139 12.4256883,14.4942317 12.4256883,15.8085696 C12.4256883,16.6691237 12.2327936,17.3920436 11.5518686,19.3645725 L0,54 L10.7046316,54 Z M24.8316099,36.1838735 L15.5276799,36.1838735 L20.4795518,20.0268517 L24.8316099,36.1838735 L24.8316099,36.1838735 Z" id="Fill-3"></path><path d="M55,54 L55,13.3713551 C55,11.2550599 53.7083143,10 51.5725288,10 L41,10 L41,13.825139 L41.6880478,13.825139 C43.4712976,13.825139 44.2238942,14.5514657 44.2238942,16.2814315 L44.2238942,54 L55,54" id="Fill-4"></path><path d="M73,54 L73,13.3713551 C73,11.2550599 71.6903363,10 69.5659441,10 L59,10 L59,13.825139 L59.6729133,13.825139 C61.4661669,13.825139 62.220624,14.5514657 62.220624,16.2814315 L62.220624,54 L73,54" id="Fill-5"></path><path d="M90.7996372,54 L90.7996372,24.196773 C90.7996372,22.0734071 89.4965733,20.8166651 87.3772425,20.8166651 L77,20.8166651 L77,24.5930615 L77.61026,24.5930615 C79.3860109,24.5930615 80.135255,25.3849529 80.135255,27.1140872 L80.135255,54 L90.7996372,54 Z M91,13.7650608 C91,10.7963251 88.7395686,9 84.8550695,9 C81.0326547,9 78.69744,10.7963251 78.69744,13.7650608 C78.69744,16.7687631 81.0326547,18.5472621 84.8550695,18.5472621 C88.7395686,18.5472621 91,16.7687631 91,13.7650608 L91,13.7650608 Z" id="Fill-6"></path><path d="M100.036473,29.9773663 C103.494249,28.3168724 107.279771,27.3840878 110.261015,27.3840878 C113.057817,27.3840878 114.054764,28.3806584 114.054764,31.2846365 L114.054764,32.0253772 C109.807794,32.696845 108.481731,32.9684499 106.086039,33.4965706 C104.705808,33.8223594 103.423626,34.2160494 102.164757,34.7517147 C97.9760683,36.4320988 96,39.6666667 96,44.6419753 C96,50.9499314 98.7172653,54 104.357494,54 C106.415155,54 108.277404,53.60631 109.941498,52.9478738 C111.397151,52.3010974 112.25971,51.7572016 114.390051,50.0967078 L114.390051,50.5589849 C114.390051,52.6145405 115.44528,53.6714678 117.509798,53.6714678 L127,53.6714678 L127,50.0967078 L126.532381,50.0967078 C124.742812,50.0967078 124.081837,49.2928669 124.081837,47.1762689 L124.081837,31.3635117 C124.081837,22.9348422 121.158188,20 112.719101,20 C110.002521,20 107.349022,20.3463649 104.766832,20.9410151 C102.164757,21.5315501 100.831151,22.0644719 97.7299168,23.5967078 L100.036473,29.9773663 Z M114.054764,37.7270233 L114.054764,44.18107 C112.321419,45.9746228 110.206848,47.0493827 108.41865,47.0493827 C106.549544,47.0493827 105.89474,46.1303155 105.89474,43.6433471 C105.89474,41.1858711 106.415155,40.0685871 108.277404,39.3449931 C109.66792,38.7407407 111.462289,38.2119342 114.054764,37.7270233 L114.054764,37.7270233 Z" id="Fill-7"></path><path d="M142.384592,54 L142.384592,31.282424 C144.114969,29.3302842 145.895294,28.4514048 147.951357,28.4514048 C150.144946,28.4514048 150.66837,29.3302842 150.66837,32.7097354 L150.66837,54 L161,54 L161,31.154688 C161,25.8362872 160.618893,24.1562806 158.956937,22.3533976 C157.563878,20.7955733 155.444867,20 152.718959,20 C148.675255,20 145.829609,21.2725008 142.005538,24.9018703 L142.005538,23.5613362 C142.005538,21.4689644 140.927901,20.4005635 138.812996,20.4005635 L129,20.4005635 L129,24.2243139 L129.59595,24.2243139 C131.318117,24.2243139 132.055015,25.0261352 132.055015,26.776952 L132.055015,54 L142.384592,54" id="Fill-8"></path><path d="M192,47.0720793 L177.575146,47.0720793 L191.340535,27.8099783 L191.340535,21 L169.777059,21 C167.32713,21 166.203648,22.1187481 166.203648,24.5689495 L166.203648,30.5642392 L170.038112,30.5642392 L170.038112,29.9758909 C170.038112,28.4610474 170.830836,27.7336226 172.475057,27.7336226 L179.895915,27.7336226 L166,47.2091106 L166,54 L192,54 L192,47.0720793" id="Fill-9"></path><path d="M276,34.0044579 C276,14.5609941 261.455514,0 242.003429,0 C222.541057,0 208,14.5609941 208,34.0044579 C208,53.4719261 222.541057,68 242.003429,68 C261.455514,68 276,53.4719261 276,34.0044579 L276,34.0044579 Z M270.223491,34.0044579 C270.223491,50.5399752 258.336487,62.5613168 242.003429,62.5613168 C225.668314,62.5613168 213.779252,50.5399752 213.779252,34.0044579 C213.779252,17.4648257 225.668314,5.44416989 242.003429,5.44416989 C258.336487,5.44416989 270.223491,17.5402677 270.223491,34.0044579 L270.223491,34.0044579 Z M232.77185,53.0775701 L232.77185,19.8611383 L226.993283,19.8611383 C224.134861,19.8611383 223.013575,20.9186981 223.013575,23.8527065 L223.013575,53.0775701 L232.77185,53.0775701 Z M251.241866,53.0775701 L260.996712,53.0775701 L260.996712,23.8527065 C260.996712,20.9186981 259.864453,19.8611383 257.005345,19.8611383 L251.241866,19.8611383 L251.241866,53.0775701 Z M246.909656,53.0775701 L246.909656,15.5520278 C246.909656,12.5624666 245.84872,11.5563445 242.942978,11.5563445 L234.161284,11.5563445 L234.161284,15.7461195 L234.685923,15.7461195 C236.691893,15.7461195 237.080057,16.1973999 237.080057,18.6115442 L237.080057,53.0775701 L246.909656,53.0775701 L246.909656,53.0775701 Z" id="Fill-10"></path></g></g></svg>