<svg xmlns="http://www.w3.org/2000/svg" id="HanseYachts-Aktiengesellschaft_logo_rgb_grey_pixelgenau_228x52" width="228" height="51" viewBox="0 0 228 51"><defs><style>            .cls-1{fill:none}.cls-2{fill:#565656}.cls-3{fill:#555454}        </style></defs><path id="Rechteck_674" d="M0 0h228v51H0z" class="cls-1" data-name="Rechteck 674"></path><path id="Pfad_296" d="M0 0h6v10h10V0h6v26h-6V15H6v11H0z" class="cls-2" data-name="Pfad 296"></path><path id="Pfad_297" d="M25.93 13c.29-4.79 4.62-6.28 8.83-6.28 3.74 0 8.24.83 8.24 5.34v9.77a9.64 9.64 0 0 0 .65 4.17h-5.23a7.93 7.93 0 0 1-.36-1.82 8.54 8.54 0 0 1-6.32 2.33c-3.59 0-6.39-1.78-6.39-5.63.07-8.53 12.71-4 12.49-8.17 0-2.18-1.52-2.54-3.34-2.54-2 0-3.23.8-3.41 2.83zM38 16.77c-.87.76-2.69.8-4.29 1.09s-3.06.87-3.06 2.76S32.14 23 33.82 23c4 0 4.18-3.16 4.18-4.32z" class="cls-2" data-name="Pfad 297"></path><path id="Pfad_298" d="M48 7h5v3h.11A6.83 6.83 0 0 1 59 6.91c5.61 0 6 3.05 6 7.66V26h-5V15.38c0-3.09-.84-4.62-3.17-4.62-2.68 0-3.83 1.56-3.83 5.38V26h-5z" class="cls-2" data-name="Pfad 298"></path><path id="Pfad_299" d="M73.26 20c0 2.16 1.91 3.08 3.85 3.08 1.42 0 3.29-.57 3.29-2.34 0-1.52-2.12-2.08-5.69-2.83-2.93-.67-5.8-1.62-5.8-4.88 0-4.66 4-5.86 8-5.86s7.63 1.34 8.02 5.83h-4.77c-.15-1.94-1.63-2.47-3.43-2.47-1.14 0-2.8.17-2.8 1.69 0 1.81 2.87 2 5.69 2.72s5.8 1.74 5.8 5.13c0 4.81-4.21 6.36-8.34 6.36s-8.42-1.59-8.59-6.43z" class="cls-2" data-name="Pfad 299"></path><path id="Pfad_300" d="M93.66 18c.15 3.13 1.71 4.59 4.62 4.59 2.07 0 3.75-1.28 4.07-2.59h4.55c-1.46 4.62-4.55 6.48-8.8 6.48-5.93 0-9.6-4.07-9.6-9.89 0-5.64 3.89-9.93 9.6-9.93 6.4 0 9.53 5.38 9.13 11.34zm8.4-3c-.47-2.62-1.6-4-4.11-4a4.05 4.05 0 0 0-4.29 4z" class="cls-2" data-name="Pfad 300"></path><path id="Pfad_301" d="M118 15.88L108 0h6.76l6.39 10.27L127.44 0h6.69L124 16v10h-6z" class="cls-2" data-name="Pfad 301"></path><path id="Pfad_302" d="M132.93 13c.29-4.79 4.62-6.28 8.83-6.28 3.74 0 8.24.83 8.24 5.34v9.77a9.64 9.64 0 0 0 .65 4.17h-5.22a7.45 7.45 0 0 1-.37-1.82 8.54 8.54 0 0 1-6.32 2.33c-3.59 0-6.39-1.78-6.39-5.63.07-8.53 12.71-4 12.49-8.17 0-2.18-1.52-2.54-3.34-2.54-2 0-3.23.8-3.41 2.83zM145 17c-.87.76-3.69.57-5.29.86s-2.06.87-2.06 2.76S139.33 23 141 23c4 0 4-2.84 4-4z" class="cls-2" data-name="Pfad 302"></path><path id="Pfad_303" d="M167 14a3.46 3.46 0 0 0-3.83-3.25c-3.32 0-4.41 3.36-4.41 6.13s1 5.95 4.3 5.95c2.45 0 3.8-1.49 4.13-3.83h5c-.7 5-4.09 7.74-9.09 7.74-5.7 0-9.53-4-9.53-9.67 0-5.88 3.51-10.22 9.64-10.22 4.45 0 8.58 2.33 8.87 7.15z" class="cls-2" data-name="Pfad 303"></path><path id="Pfad_304" d="M176 0h5v10h.11a6.24 6.24 0 0 1 5.28-3.09c5.28 0 6.61 3.05 6.61 7.66V26h-5V15c0-3.09-.84-4.24-3.17-4.24-2.68 0-3.83 1.42-3.83 5.24v10h-5z" class="cls-2" data-name="Pfad 304"></path><path id="Pfad_305" d="M205 7h4v3h-4v9.93l1 2.07h3v4h-5a4.17 4.17 0 0 1-4-3V10h-4V7h4V1h5z" class="cls-2" data-name="Pfad 305"></path><path id="Pfad_306" d="M215.84 20c0 2.16 1.91 3.08 3.85 3.08 1.41 0 3.29-.57 3.29-2.34 0-1.52-2.12-2.08-5.69-2.83-2.94-.67-5.8-1.62-5.8-4.88 0-4.66 4-5.86 7.95-5.86s7.67 1.34 8.06 5.83h-4.77c-.14-1.94-1.63-2.47-3.43-2.47-1.13 0-2.79.17-2.79 1.69 0 1.81 2.86 2 5.69 2.72s5.8 1.74 5.8 5.13c0 4.81-4.21 6.36-8.35 6.36s-8.41-1.59-8.59-6.43z" class="cls-2" data-name="Pfad 306"></path><path id="Pfad_307" d="M49.48 37.64h2.09L55 46.92h-2.07l-.71-2.06h-3.47L48 46.92h-2zm-.19 5.7h2.4l-1.17-3.41z" class="cls-3" data-name="Pfad 307"></path><path id="Pfad_308" d="M57.06 37.64h1.85v5l2.32-2.42h2.19l-2.54 2.47 2.82 4.25h-2.23l-1.85-3-.71.69v2.31h-1.85z" class="cls-3" data-name="Pfad 308"></path><path id="Pfad_309" d="M67.93 40.2h1.35v1.24h-1.35v3.33c0 .62.15.78.78.78a3.27 3.27 0 0 0 .57 0v1.44a7.4 7.4 0 0 1-1.08.01c-1.14 0-2.12-.24-2.12-1.6v-4H65v-1.2h1.12v-2h1.85z" class="cls-3" data-name="Pfad 309"></path><path id="Pfad_310" d="M73.3 39.16h-1.85v-1.52h1.85zm-1.85 1h1.85v6.72h-1.85z" class="cls-3" data-name="Pfad 310"></path><path id="Pfad_311" d="M77.51 44a1.489 1.489 0 0 0 1.65 1.71 1.53 1.53 0 0 0 1.46-.88h1.62a3 3 0 0 1-3.15 2.27 3.29 3.29 0 0 1-3.43-3.54A3.37 3.37 0 0 1 79.09 40c2.29 0 3.41 1.93 3.27 4zm3-1.17c-.17-.93-.57-1.43-1.47-1.43a1.45 1.45 0 0 0-1.53 1.43z" class="cls-3" data-name="Pfad 311"></path><path id="Pfad_312" d="M84.68 40.2h1.76v.94a2.36 2.36 0 0 1 2-1.12c2 0 2.46 1.11 2.46 2.77v4.13h-1.76v-3.79c0-1.11-.31-1.65-1.18-1.65s-1.43.56-1.43 1.92v3.52h-1.85z" class="cls-3" data-name="Pfad 312"></path><path id="Pfad_313" d="M100.09 46.5c0 1.1-.4 3-3.49 3-1.32 0-2.85-.63-3-2.16h1.83a1.25 1.25 0 0 0 1.38.93 1.439 1.439 0 0 0 1.48-1.67v-.88a2.22 2.22 0 0 1-2 1c-2 0-2.87-1.53-2.87-3.38s1-3.33 2.89-3.33a2.11 2.11 0 0 1 2 1.08v-.9h1.76zm-1.76-3c0-1.09-.37-2.07-1.57-2.07-1 0-1.49.91-1.49 1.91s.35 2 1.49 2a1.66 1.66 0 0 0 1.57-1.86z" class="cls-3" data-name="Pfad 313"></path><path id="Pfad_314" d="M104.33 44a1.645 1.645 0 0 0 3.1.83h1.63a3 3 0 0 1-3.15 2.27 3.28 3.28 0 0 1-3.43-3.54 3.37 3.37 0 0 1 3.43-3.56c2.29 0 3.41 1.93 3.27 4zm3-1.17c-.17-.93-.57-1.43-1.47-1.43a1.45 1.45 0 0 0-1.53 1.43z" class="cls-3" data-name="Pfad 314"></path><path id="Pfad_315" d="M112.93 44.74c0 .79.7 1.13 1.42 1.13.52 0 1.21-.21 1.21-.86s-.78-.76-2.09-1c-1.08-.24-2.14-.59-2.14-1.79 0-1.72 1.49-2.16 2.93-2.16s2.82.5 3 2.15h-1.75c0-.72-.6-.91-1.26-.91-.42 0-1 .06-1 .62s1 .75 2.09 1 2.14.64 2.14 1.89c0 1.77-1.55 2.34-3.07 2.34s-3.1-.59-3.16-2.37z" class="cls-3" data-name="Pfad 315"></path><path id="Pfad_316" d="M121.24 44c.05 1.19.61 1.71 1.65 1.71a1.53 1.53 0 0 0 1.46-.88H126a3 3 0 0 1-3.14 2.27 3.29 3.29 0 0 1-3.44-3.54 3.38 3.38 0 0 1 3.41-3.56c2.28 0 3.4 1.93 3.26 4zm3-1.17c-.17-.93-.57-1.43-1.47-1.43a1.45 1.45 0 0 0-1.53 1.43z" class="cls-3" data-name="Pfad 316"></path><path id="Pfad_317" d="M128.47 37.64h1.84v9.28h-1.84z" class="cls-3" data-name="Pfad 317"></path><path id="Pfad_318" d="M133.06 37.64h1.84v9.28h-1.84z" class="cls-3" data-name="Pfad 318"></path><path id="Pfad_319" d="M139 44.74c0 .79.71 1.13 1.42 1.13.52 0 1.21-.21 1.21-.86s-.78-.76-2.09-1c-1.08-.24-2.14-.59-2.14-1.79 0-1.72 1.49-2.16 2.93-2.16s2.82.5 3 2.15h-1.75c-.05-.72-.6-.91-1.26-.91-.42 0-1 .06-1 .62s1 .75 2.09 1 2.14.64 2.14 1.89c0 1.77-1.55 2.34-3.07 2.34s-3.1-.59-3.16-2.37z" class="cls-3" data-name="Pfad 319"></path><path id="Pfad_320" d="M150.39 42.57a1.24 1.24 0 0 0-1.39-1.16c-1.18 0-1.57 1.2-1.57 2.19s.37 2.12 1.53 2.12a1.41 1.41 0 0 0 1.47-1.37h1.78a3 3 0 0 1-3.21 2.76 3.27 3.27 0 0 1-3.39-3.45A3.33 3.33 0 0 1 149 40c1.59 0 3.06.83 3.16 2.55z" class="cls-3" data-name="Pfad 320"></path><path id="Pfad_321" d="M154.51 37.64h1.84v3.5a2.33 2.33 0 0 1 2-1.12c2 0 2.46 1.11 2.46 2.77v4.13H159v-3.79c0-1.11-.32-1.65-1.19-1.65s-1.43.56-1.43 1.92v3.52h-1.84z" class="cls-3" data-name="Pfad 321"></path><path id="Pfad_322" d="M163.37 42.27c.11-1.72 1.65-2.25 3.16-2.25 1.34 0 2.95.3 2.95 1.91v3.5a3.38 3.38 0 0 0 .24 1.49h-1.88a3.251 3.251 0 0 1-.13-.65 3 3 0 0 1-2.26.84c-1.28 0-2.29-.64-2.29-2 0-3.05 4.55-1.42 4.48-2.92 0-.78-.55-.91-1.2-.91a1.066 1.066 0 0 0-1.22 1zm4.27 1.37a3.89 3.89 0 0 1-1.54.39c-.57.1-1.09.31-1.09 1s.53.86 1.13.86a1.37 1.37 0 0 0 1.5-1.54z" class="cls-3" data-name="Pfad 322"></path><path id="Pfad_323" d="M172.55 41.44h-1.1V40.2h1.1v-.52a2 2 0 0 1 2.25-2h1v1.38h-.67c-.51 0-.7.21-.7.77v.4h1.27v1.24h-1.3v5.48h-1.85z" class="cls-3" data-name="Pfad 323"></path><path id="Pfad_324" d="M180.05 40.2h1.35v1.24h-1.35v3.33c0 .62.16.78.78.78a3.27 3.27 0 0 0 .57 0v1.44a7.321 7.321 0 0 1-1.08.06c-1.14 0-2.11-.24-2.11-1.6v-4h-1.12V40.2h1.12v-2h1.84z" class="cls-3" data-name="Pfad 324"></path></svg>