<svg xmlns="http://www.w3.org/2000/svg" id="Logo" width="338" height="64" viewBox="0 0 338 64"><title>kirche-mv-logo</title><path id="MV" d="M333.34,40.27a3.79,3.79,0,0,0-1.91.48,3.55,3.55,0,0,0-1.34,1.35l-.17-1.58H327.7a22.15,22.15,0,0,1,.15,2.72v6.88h2.36V44.68a2.54,2.54,0,0,1,.66-1.83,2.32,2.32,0,0,1,1.75-.69,1.65,1.65,0,0,1,1.35.52,2.58,2.58,0,0,1,.43,1.66v5.78h2.38V44.23q0-4-3.44-4m-7.77,0a3.24,3.24,0,0,0-1.77.5,2.84,2.84,0,0,0-1.14,1.42l-.19-1.69h-2.22a22.15,22.15,0,0,1,.15,2.72v6.88h2.36V44.93a2.69,2.69,0,0,1,.63-1.86,2.4,2.4,0,0,1,1.86-.71,3.36,3.36,0,0,1,1.25.25l0-2.16a2.49,2.49,0,0,0-.95-.16M314.17,42a2,2,0,0,1,1.49.55,2.66,2.66,0,0,1,.66,1.63h-4.47a2.75,2.75,0,0,1,.77-1.62,2.16,2.16,0,0,1,1.55-.56m4.22,3.09a5.06,5.06,0,0,0-1.15-3.52,4,4,0,0,0-3.13-1.29,4.64,4.64,0,0,0-2.41.64,4.36,4.36,0,0,0-1.65,1.78,5.5,5.5,0,0,0-.59,2.6,4.89,4.89,0,0,0,1.35,3.65,5,5,0,0,0,3.7,1.33,6.44,6.44,0,0,0,2-.33,5.36,5.36,0,0,0,1.68-.89l-.69-1.63a4.74,4.74,0,0,1-2.92,1,2.7,2.7,0,0,1-2.06-.73,3.4,3.4,0,0,1-.77-2.27h6.61Zm-14.16-4.81a3.8,3.8,0,0,0-1.89.49A3.35,3.35,0,0,0,301,42.1a2.73,2.73,0,0,0-2.87-1.83,3.58,3.58,0,0,0-1.81.46A3,3,0,0,0,295.15,42L295,40.52h-2.22a22.15,22.15,0,0,1,.15,2.72v6.88h2.36V44.76a2.92,2.92,0,0,1,.57-1.91,1.9,1.9,0,0,1,1.55-.69,1.45,1.45,0,0,1,1.23.51A2.72,2.72,0,0,1,299,44.3v5.82h2.37V44.76a3,3,0,0,1,.56-1.91,1.9,1.9,0,0,1,1.55-.69,1.42,1.42,0,0,1,1.23.5,2.88,2.88,0,0,1,.37,1.64v5.82h2.37V44.23a4.69,4.69,0,0,0-.79-3,3,3,0,0,0-2.44-1m-17.08,0a3.8,3.8,0,0,0-1.89.49A3.35,3.35,0,0,0,284,42.1a2.73,2.73,0,0,0-2.87-1.83,3.58,3.58,0,0,0-1.81.46A3,3,0,0,0,278.07,42l-.17-1.52h-2.22a22.15,22.15,0,0,1,.15,2.72v6.88h2.35V44.76a2.92,2.92,0,0,1,.58-1.91,1.9,1.9,0,0,1,1.55-.69,1.45,1.45,0,0,1,1.23.51,2.72,2.72,0,0,1,.39,1.63v5.82h2.37V44.76a3,3,0,0,1,.56-1.91,1.9,1.9,0,0,1,1.55-.69,1.42,1.42,0,0,1,1.23.5A2.88,2.88,0,0,1,288,44.3v5.82h2.37V44.23a4.63,4.63,0,0,0-.8-3,3,3,0,0,0-2.43-1m-18.24,8.14a2.19,2.19,0,0,1-1.83-.79,3.66,3.66,0,0,1-.64-2.35,3.67,3.67,0,0,1,.65-2.34,2.48,2.48,0,0,1,3.67,0,3.67,3.67,0,0,1,.64,2.34,3.72,3.72,0,0,1-.63,2.35,2.25,2.25,0,0,1-1.86.79m0,1.86a5.17,5.17,0,0,0,2.55-.61,4.14,4.14,0,0,0,1.7-1.74,5.54,5.54,0,0,0,.6-2.65,5.6,5.6,0,0,0-.6-2.65,4.25,4.25,0,0,0-1.7-1.74,5.68,5.68,0,0,0-5.12,0,4.22,4.22,0,0,0-1.71,1.74,5.6,5.6,0,0,0-.6,2.65,5.54,5.54,0,0,0,.6,2.65,4.1,4.1,0,0,0,1.71,1.74,5.22,5.22,0,0,0,2.57.61m-11.3-1.86a2.23,2.23,0,0,1-1.85-.81,3.63,3.63,0,0,1-.64-2.31,3.72,3.72,0,0,1,.64-2.34,2.26,2.26,0,0,1,1.87-.81,2.17,2.17,0,0,1,1.82.84,3.81,3.81,0,0,1,.65,2.35,3.54,3.54,0,0,1-.65,2.28,2.25,2.25,0,0,1-1.84.8m.64-8.14a3.78,3.78,0,0,0-2,.51,2.94,2.94,0,0,0-1.24,1.39l-.19-1.65h-2.22a22.15,22.15,0,0,1,.15,2.72v11h2.36V48.58a3.11,3.11,0,0,0,1.25,1.24,3.82,3.82,0,0,0,1.86.45A3.93,3.93,0,0,0,262,47.93a6.66,6.66,0,0,0,0-5.23,4.28,4.28,0,0,0-1.5-1.79,3.92,3.92,0,0,0-2.2-.64m-7.75,0a3.24,3.24,0,0,0-1.77.5,2.89,2.89,0,0,0-1.14,1.42l-.19-1.69H245.2a22.15,22.15,0,0,1,.15,2.72v6.88h2.36V44.93a2.65,2.65,0,0,1,.64-1.86,2.36,2.36,0,0,1,1.85-.71,3.36,3.36,0,0,1,1.25.25l0-2.16a2.45,2.45,0,0,0-.95-.16m-12.08,8.12a2.23,2.23,0,0,1-1.84-.79,3.72,3.72,0,0,1-.63-2.35,3.67,3.67,0,0,1,.64-2.34,2.23,2.23,0,0,1,1.85-.81,2.2,2.2,0,0,1,1.82.81,3.67,3.67,0,0,1,.65,2.34,3.72,3.72,0,0,1-.64,2.35,2.22,2.22,0,0,1-1.85.79m0,1.86a5.11,5.11,0,0,0,2.54-.61,4.08,4.08,0,0,0,1.7-1.74,5.54,5.54,0,0,0,.6-2.65,5.6,5.6,0,0,0-.6-2.65,4.19,4.19,0,0,0-1.7-1.74,5.21,5.21,0,0,0-2.54-.61,5.35,5.35,0,0,0-2.58.61,4.22,4.22,0,0,0-1.71,1.74,5.6,5.6,0,0,0-.6,2.65,5.54,5.54,0,0,0,.6,2.65,4.1,4.1,0,0,0,1.71,1.74,5.24,5.24,0,0,0,2.58.61M227.11,47l-4.5-10.45h-2.55l6,13.53h2l6-13.53h-2.48Zm-7.33-3h-5.72v1.9h5.72Zm-13.19,4a2.32,2.32,0,0,1-1.85-.78,3.77,3.77,0,0,1,0-4.29,2.61,2.61,0,0,1,3.72,0,3.2,3.2,0,0,1,.66,2.14,3.16,3.16,0,0,1-.67,2.15,2.33,2.33,0,0,1-1.86.78m2.53-7.47V42a3,3,0,0,0-1.26-1.25,3.88,3.88,0,0,0-1.89-.45,4.31,4.31,0,0,0-2.24.6,4.06,4.06,0,0,0-1.52,1.7,6,6,0,0,0,0,5,4,4,0,0,0,1.52,1.69,4.22,4.22,0,0,0,2.24.6,3.73,3.73,0,0,0,1.88-.48,3.44,3.44,0,0,0,1.27-1.27V50a2.26,2.26,0,0,1-2.57,2.55,7.52,7.52,0,0,1-3.47-.91l-.38,1.8a8,8,0,0,0,3.91.93,5.08,5.08,0,0,0,3.63-1.16,4.41,4.41,0,0,0,1.24-3.4V40.52Zm-9-.23a3.23,3.23,0,0,0-1.76.5,2.84,2.84,0,0,0-1.14,1.42L197,40.52h-2.23a20.22,20.22,0,0,1,.16,2.72v6.88h2.35V44.93a2.65,2.65,0,0,1,.64-1.86,2.36,2.36,0,0,1,1.85-.71,3.36,3.36,0,0,1,1.25.25l0-2.16a2.45,2.45,0,0,0-.95-.16M190,40.52v5.34a2.61,2.61,0,0,1-.63,1.83,2.17,2.17,0,0,1-1.67.68,1.67,1.67,0,0,1-1.32-.49,2.3,2.3,0,0,1-.43-1.54V40.52h-2.35v5.8q0,3.95,3.51,4a3.57,3.57,0,0,0,1.75-.42A3.06,3.06,0,0,0,190,48.64v1.48h2.32v-9.6Zm-13.28,7.89a2.24,2.24,0,0,1-1.86-.81,3.65,3.65,0,0,1-.65-2.33,3.68,3.68,0,0,1,.65-2.32,2.51,2.51,0,0,1,3.68,0,3.61,3.61,0,0,1,.65,2.29,3.74,3.74,0,0,1-.65,2.34,2.17,2.17,0,0,1-1.82.84m.63-8.14a3.83,3.83,0,0,0-1.87.45A3.07,3.07,0,0,0,174.2,42V36.13h-2.36v14h2.34V48.54a2.92,2.92,0,0,0,1.24,1.27,3.82,3.82,0,0,0,1.9.46,3.9,3.9,0,0,0,2.19-.63,4.22,4.22,0,0,0,1.5-1.77,6.16,6.16,0,0,0,.54-2.64,6.1,6.1,0,0,0-.53-2.6,4.17,4.17,0,0,0-1.49-1.74,4,4,0,0,0-2.21-.62m-11.44,0a3.79,3.79,0,0,0-1.91.48,3.48,3.48,0,0,0-1.34,1.35l-.17-1.58h-2.23a20.22,20.22,0,0,1,.16,2.72v6.88h2.35V44.68a2.5,2.5,0,0,1,.67-1.83,2.3,2.3,0,0,1,1.74-.69,1.65,1.65,0,0,1,1.35.52,2.58,2.58,0,0,1,.44,1.66v5.78h2.38V44.23q0-4-3.44-4M154.15,42a2,2,0,0,1,1.5.55,2.6,2.6,0,0,1,.65,1.63h-4.46a2.74,2.74,0,0,1,.76-1.62,2.16,2.16,0,0,1,1.55-.56m4.22,3.09a5.06,5.06,0,0,0-1.15-3.52,4,4,0,0,0-3.12-1.29,4.68,4.68,0,0,0-2.42.64A4.36,4.36,0,0,0,150,42.69a5.63,5.63,0,0,0-.59,2.6,4.89,4.89,0,0,0,1.35,3.65,5,5,0,0,0,3.71,1.33,6.42,6.42,0,0,0,2-.33,5.36,5.36,0,0,0,1.68-.89l-.68-1.63a4.77,4.77,0,0,1-2.93,1,2.7,2.7,0,0,1-2.06-.73,3.45,3.45,0,0,1-.77-2.27h6.61Zm-11-8.95H145v14h2.36Zm-8,9,4.31-4.58h-2.87l-3.95,4.22V36.13h-2.35v14h2.35V45.69l4.2,4.43h3Zm-10.07,5.15a6.49,6.49,0,0,0,2-.32,4.31,4.31,0,0,0,1.58-.9l-.66-1.67a4.91,4.91,0,0,1-1.3.76,3.61,3.61,0,0,1-1.35.27,2.58,2.58,0,0,1-2-.8,3.39,3.39,0,0,1-.71-2.32,3.4,3.4,0,0,1,.72-2.33,2.58,2.58,0,0,1,2-.8,3.79,3.79,0,0,1,1.35.25,4.62,4.62,0,0,1,1.3.75l.66-1.67a3.8,3.8,0,0,0-1.53-.89,6.06,6.06,0,0,0-2-.33,5.31,5.31,0,0,0-2.61.64,4.54,4.54,0,0,0-1.75,1.78,5.47,5.47,0,0,0-.61,2.64,5.41,5.41,0,0,0,.59,2.61,4.06,4.06,0,0,0,1.69,1.72,5.23,5.23,0,0,0,2.6.61M118.76,42a2,2,0,0,1,1.49.55,2.6,2.6,0,0,1,.65,1.63h-4.46a2.69,2.69,0,0,1,.77-1.62,2.14,2.14,0,0,1,1.55-.56M123,45.08a5.11,5.11,0,0,0-1.15-3.52,4,4,0,0,0-3.13-1.29,4.64,4.64,0,0,0-2.41.64,4.36,4.36,0,0,0-1.65,1.78,5.5,5.5,0,0,0-.59,2.6,4.92,4.92,0,0,0,1.34,3.65,5,5,0,0,0,3.71,1.33,6.38,6.38,0,0,0,2-.33,5.31,5.31,0,0,0,1.69-.89l-.69-1.63a4.75,4.75,0,0,1-2.93,1,2.71,2.71,0,0,1-2.06-.73,3.45,3.45,0,0,1-.77-2.27H123Zm-17.75,2.09-4.66-10.58H98.64V50.12h2.16V41.81l3.61,8.31H106l3.59-8.4v8.4h2.17V36.59h-1.94Zm-18-6.9a3.79,3.79,0,0,0-1.91.48A3.48,3.48,0,0,0,84,42.1l-.17-1.58H81.61a22.15,22.15,0,0,1,.15,2.72v6.88h2.36V44.68a2.5,2.5,0,0,1,.67-1.83,2.3,2.3,0,0,1,1.74-.69,1.65,1.65,0,0,1,1.35.52,2.58,2.58,0,0,1,.44,1.66v5.78h2.37V44.23q0-4-3.43-4M76.65,38.51h2.64V36.17H76.65Zm2.51,2H76.81v9.6h2.35Z" style="fill:#003b5b"></path><path id="EK" d="M249.86,16a2,2,0,0,1,1.49.55,2.6,2.6,0,0,1,.65,1.63h-4.46a2.69,2.69,0,0,1,.77-1.62,2.14,2.14,0,0,1,1.55-.56m4.21,3.09a5.06,5.06,0,0,0-1.15-3.52,3.94,3.94,0,0,0-3.12-1.28,4.61,4.61,0,0,0-2.41.63,4.46,4.46,0,0,0-1.66,1.78,5.63,5.63,0,0,0-.59,2.6,4.89,4.89,0,0,0,1.35,3.65,5,5,0,0,0,3.71,1.33,6.38,6.38,0,0,0,2-.33,5.15,5.15,0,0,0,1.68-.89l-.68-1.63a4.78,4.78,0,0,1-2.93,1,2.7,2.7,0,0,1-2.06-.74,3.45,3.45,0,0,1-.77-2.27h6.61Zm-14.36-4.8a3.9,3.9,0,0,0-1.82.42,3.42,3.42,0,0,0-1.32,1.21V10.13h-2.35v14h2.35V18.68a2.54,2.54,0,0,1,.67-1.83,2.32,2.32,0,0,1,1.75-.69,1.65,1.65,0,0,1,1.35.52,2.58,2.58,0,0,1,.43,1.66v5.78h2.38V18.23c0-2.64-1.15-4-3.44-4m-10.7,10a6.6,6.6,0,0,0,2-.32,4.27,4.27,0,0,0,1.57-.9L232,21.38a5,5,0,0,1-1.29.76,3.69,3.69,0,0,1-1.35.27,2.59,2.59,0,0,1-2-.8,3.39,3.39,0,0,1-.71-2.32A3.4,3.4,0,0,1,227.3,17a2.6,2.6,0,0,1,2-.8,3.87,3.87,0,0,1,1.35.25,4.71,4.71,0,0,1,1.29.75l.66-1.67a3.8,3.8,0,0,0-1.53-.89,6,6,0,0,0-2-.32,5.25,5.25,0,0,0-2.61.63,4.41,4.41,0,0,0-1.75,1.78,5.48,5.48,0,0,0-.62,2.64,5.52,5.52,0,0,0,.59,2.61,4.12,4.12,0,0,0,1.69,1.72,5.23,5.23,0,0,0,2.6.61m-6.44-10a3.24,3.24,0,0,0-1.77.5,3,3,0,0,0-1.14,1.42l-.19-1.69h-2.22a22.15,22.15,0,0,1,.15,2.72v6.88h2.36V18.93a2.65,2.65,0,0,1,.64-1.86,2.35,2.35,0,0,1,1.85-.7,3.35,3.35,0,0,1,1.25.24l0-2.16a2.66,2.66,0,0,0-1-.16m-10.28-1.78h2.64V10.17h-2.64Zm2.51,2h-2.35v9.6h2.35Zm-10,2.57,6.57-6.5h-2.94l-6.05,6.06V10.59H200V24.12h2.45V17.79l6.29,6.33h3ZM188.35,16a2,2,0,0,1,1.5.55,2.66,2.66,0,0,1,.65,1.63H186a2.69,2.69,0,0,1,.77-1.62,2.12,2.12,0,0,1,1.54-.56m4.22,3.09a5.06,5.06,0,0,0-1.15-3.52,4,4,0,0,0-3.12-1.28,4.67,4.67,0,0,0-2.42.63,4.36,4.36,0,0,0-1.65,1.78,5.63,5.63,0,0,0-.59,2.6A4.89,4.89,0,0,0,185,22.94a5,5,0,0,0,3.71,1.33,6.42,6.42,0,0,0,2-.33,5.36,5.36,0,0,0,1.68-.89l-.68-1.63a4.78,4.78,0,0,1-2.93,1,2.7,2.7,0,0,1-2.06-.74,3.45,3.45,0,0,1-.77-2.27h6.61Zm-14.36-4.8a4,4,0,0,0-1.83.42,3.46,3.46,0,0,0-1.31,1.21V10.13h-2.35v14h2.35V18.68a2.5,2.5,0,0,1,.67-1.83,2.3,2.3,0,0,1,1.75-.69,1.64,1.64,0,0,1,1.34.52,2.52,2.52,0,0,1,.44,1.66v5.78h2.38V18.23c0-2.64-1.15-4-3.44-4m-10.7,10a6.49,6.49,0,0,0,2-.32,4.23,4.23,0,0,0,1.58-.9l-.66-1.67a4.91,4.91,0,0,1-1.3.76,3.6,3.6,0,0,1-1.34.27,2.59,2.59,0,0,1-2-.8,3.39,3.39,0,0,1-.71-2.32A3.4,3.4,0,0,1,165.8,17a2.58,2.58,0,0,1,2-.8,3.78,3.78,0,0,1,1.34.25,4.62,4.62,0,0,1,1.3.75l.66-1.67a3.8,3.8,0,0,0-1.53-.89,6,6,0,0,0-2-.32,5.32,5.32,0,0,0-2.62.63,4.45,4.45,0,0,0-1.74,1.78,5.37,5.37,0,0,0-.62,2.64,5.41,5.41,0,0,0,.59,2.61,4.06,4.06,0,0,0,1.69,1.72,5.23,5.23,0,0,0,2.6.61m-10.35,0a4.82,4.82,0,0,0,2.9-.78,2.48,2.48,0,0,0,1.07-2.11,2.42,2.42,0,0,0-.66-1.76,4.09,4.09,0,0,0-2.08-1l-1.63-.36a2.37,2.37,0,0,1-.94-.42.85.85,0,0,1-.28-.67.94.94,0,0,1,.46-.83,2.21,2.21,0,0,1,1.27-.31,4.94,4.94,0,0,1,3,1.07l.71-1.62a5.27,5.27,0,0,0-1.67-.9,6.31,6.31,0,0,0-2-.31,5.1,5.1,0,0,0-2.07.38,3.19,3.19,0,0,0-1.39,1.05,2.56,2.56,0,0,0-.49,1.55c0,1.4.87,2.3,2.62,2.68l1.6.36a3,3,0,0,1,1.1.45.85.85,0,0,1,.32.69.9.9,0,0,1-.47.8,2.54,2.54,0,0,1-1.32.28,5.76,5.76,0,0,1-3.51-1.14L153,23.05a6.53,6.53,0,0,0,4.15,1.22m-8.63-11.76h2.64V10.17h-2.64Zm2.51,2h-2.36v9.6H151Zm-5-4.39h-2.36v14h2.36ZM137.49,16a2,2,0,0,1,1.49.55,2.66,2.66,0,0,1,.66,1.63h-4.47a2.75,2.75,0,0,1,.77-1.62,2.16,2.16,0,0,1,1.55-.56m4.22,3.09a5.06,5.06,0,0,0-1.15-3.52,4,4,0,0,0-3.13-1.28,4.66,4.66,0,0,0-2.41.63,4.36,4.36,0,0,0-1.65,1.78,5.63,5.63,0,0,0-.59,2.6,4.89,4.89,0,0,0,1.35,3.65,5,5,0,0,0,3.7,1.33,6.44,6.44,0,0,0,2-.33,5.36,5.36,0,0,0,1.68-.89l-.69-1.63a4.73,4.73,0,0,1-2.92,1,2.7,2.7,0,0,1-2.06-.74,3.4,3.4,0,0,1-.77-2.27h6.61ZM125.86,22a2.32,2.32,0,0,1-1.85-.78,3.16,3.16,0,0,1-.67-2.15,3.15,3.15,0,0,1,.67-2.14,2.61,2.61,0,0,1,3.72,0,3.2,3.2,0,0,1,.66,2.14,3.16,3.16,0,0,1-.67,2.15,2.33,2.33,0,0,1-1.86.78m2.53-7.47V16a3,3,0,0,0-1.26-1.25,3.88,3.88,0,0,0-1.89-.44,4.21,4.21,0,0,0-2.24.59,4.16,4.16,0,0,0-1.52,1.69,5.6,5.6,0,0,0-.54,2.5,5.57,5.57,0,0,0,.54,2.5A4.09,4.09,0,0,0,123,23.25a4.22,4.22,0,0,0,2.24.6,3.73,3.73,0,0,0,1.88-.48,3.36,3.36,0,0,0,1.27-1.27V24a2.26,2.26,0,0,1-2.56,2.55,7.41,7.41,0,0,1-3.48-.91l-.38,1.8a8,8,0,0,0,3.91.93,5.08,5.08,0,0,0,3.63-1.16,4.41,4.41,0,0,0,1.24-3.4V14.52Zm-12.88-.24a3.78,3.78,0,0,0-1.91.47,3.55,3.55,0,0,0-1.34,1.35l-.17-1.58h-2.22a22.15,22.15,0,0,1,.15,2.72v6.88h2.35V18.68a2.54,2.54,0,0,1,.67-1.83,2.32,2.32,0,0,1,1.75-.69,1.66,1.66,0,0,1,1.35.52,2.58,2.58,0,0,1,.43,1.66v5.78H119V18.23c0-2.64-1.15-4-3.44-4m-12.88,8.13a2.29,2.29,0,0,1-1.86-.8,3.54,3.54,0,0,1-.65-2.28,3.81,3.81,0,0,1,.65-2.35,2.46,2.46,0,0,1,3.68,0,3.72,3.72,0,0,1,.65,2.34,3.62,3.62,0,0,1-.65,2.3,2.18,2.18,0,0,1-1.82.82m2.47-7.89V16a3,3,0,0,0-1.26-1.25,3.76,3.76,0,0,0-1.86-.44,3.93,3.93,0,0,0-2.2.63,4.23,4.23,0,0,0-1.51,1.79,6.09,6.09,0,0,0-.54,2.63,5.89,5.89,0,0,0,.53,2.6,3.92,3.92,0,0,0,1.5,1.73,4,4,0,0,0,2.22.61,3.77,3.77,0,0,0,1.86-.45,3,3,0,0,0,1.26-1.24v1.54h2.33v-9.6ZM92,21.42l-2.76-6.88H86.78l4.14,9.58H93l4.2-9.58H94.84Zm-6,2.7V22.18H79.37v-4h6.25V16.27H79.37V12.53H86V10.59H77V24.12Z" style="fill:#003b5b"></path><path id="Kreuz" d="M55.79,27.19,31.48,25.73l-.09,0a1.6,1.6,0,0,1-.43-.43s0-.05,0-.08L29.49.89q-.54,0-1.08,0t-1.08,0L25.87,25.2a.34.34,0,0,1,0,.09,2.09,2.09,0,0,1-.42.42l-.1,0L1,27.19q0,.54,0,1.08t0,1.08l24.3,1.46.1,0a1.9,1.9,0,0,1,.43.42s0,.06,0,.09L27.32,63l1.09,0q.54,0,1.08,0L31,31.34s0-.06,0-.1a1.77,1.77,0,0,1,.41-.41l.11,0,24.31-1.46c0-.36,0-.72,0-1.08s0-.72,0-1.08" style="fill:#003b5b"></path></svg>