<svg xmlns="http://www.w3.org/2000/svg" xmlns:xlink="http://www.w3.org/1999/xlink" id="Ebene_1" x="0px" y="0px" viewBox="0 0 392 77.6" style="enable-background:new 0 0 392 77.6;" xml:space="preserve">
<style type="text/css">
	.st0{fill:#6D8992;}
	.st1{fill:#395B64;}
	.st2{fill:#FFE000;}
	.st3{fill:#FBBA00;}
	.st4{fill:#D3D800;}
	.st5{fill:#BFE1E0;}
	.st6{fill:#00A5C8;}
	.st7{fill:#00727F;}
</style>
<g>
	<g>
		<path class="st0" d="M304.8,75h2.3v-2.3h-2.3V75z M296.2,69.4v-0.2c0-1.2,0.6-1.9,1.8-1.9c1.2,0,1.8,0.7,1.8,1.9v0.2H296.2z     M296.2,70.9h5.6v-0.8c0-3.2-1.1-4.5-3.9-4.5s-3.9,1.3-3.9,4.5v0.6c0,3.1,1.2,4.4,4,4.4c1.9,0,3-0.5,3.8-1.7l-1.6-0.9    c-0.5,0.7-1,0.9-1.9,0.9c-1.3,0-2-0.8-2-2.2v-0.3H296.2z M287.4,67.6v3.6c0,3.2,0.6,3.8,3.7,3.8h0.3v-1.8h-0.3    c-1.2,0-1.6-0.4-1.6-1.8v-3.8h1.8v-1.7h-1.8v-2.7h-2.1l-0.1,2.7h-1v1.7C286.3,67.6,287.4,67.6,287.4,67.6z M281.5,70.9v1    c0,0.6,0,0.9-0.2,1.1c-0.2,0.3-0.7,0.5-1.4,0.5c-1.2,0-1.6-0.3-1.6-1.2c0-0.9,0.4-1.3,1.6-1.3L281.5,70.9L281.5,70.9z M281.5,69.4    h-1.9c-2.6,0-3.4,0.7-3.4,2.9c0,2.1,0.9,2.8,3.1,2.8c1.2,0,1.9-0.2,2.5-0.7l0.1,0.5h1.7v-5.5c0-1.1-0.1-1.7-0.3-2.3    c-0.5-1-1.6-1.5-3.2-1.5s-2.8,0.5-3.6,1.6l1.5,1.1c0.5-0.6,1.1-0.9,1.9-0.9c1.1,0,1.6,0.5,1.6,1.6L281.5,69.4L281.5,69.4z     M268.9,75h2.1l3.2-9.1H272l-2,6.5l-2-6.5h-2.2L268.9,75z M261.5,70.9c0,1.7-0.5,2.5-1.7,2.5s-1.7-0.7-1.7-2.5v-1.1    c0-1.7,0.5-2.5,1.7-2.5s1.7,0.7,1.7,2.5V70.9z M255.8,71.1c0,2.9,1.2,4.1,4,4.1s3.9-1.2,3.9-4.1v-1.4c0-2.9-1.2-4.1-3.9-4.1    c-2.8,0-4,1.2-4,4.1V71.1z M245.1,75h2.2v-4.7c0-2,0.4-2.7,1.6-2.7c1.1,0,1.5,0.7,1.5,2.5v5h2.2v-5.2c0-1.1-0.1-1.8-0.3-2.3    c-0.4-1.2-1.5-1.8-3-1.8c-1.2,0-1.9,0.3-2.4,1l-0.2-0.8H245L245.1,75L245.1,75z M234.2,75h2.2v-4.7c0-2,0.4-2.7,1.6-2.7    c1.1,0,1.5,0.7,1.5,2.5v5h2.2v-5.2c0-1.1-0.1-1.8-0.3-2.3c-0.4-1.2-1.5-1.8-3-1.8c-1.2,0-1.9,0.3-2.4,1l-0.2-0.8h-1.7L234.2,75    L234.2,75z M228.7,75h2.2v-9.1h-2.2V75z M228.7,64.4h2.2v-2.3h-2.2V64.4z M218.2,75h2.3v-2.3h-2.3V75z M211.1,67.6v3.6    c0,3.2,0.6,3.8,3.7,3.8h0.3v-1.8h-0.2c-1.2,0-1.6-0.4-1.6-1.8v-3.8h1.8v-1.7h-1.8v-2.7h-2.1l-0.1,2.7h-1v1.7    C210.1,67.6,211.1,67.6,211.1,67.6z M204.4,62.2v8.9c0,3.1,0.7,3.8,3.7,3.8h0.4v-1.8h-0.3c-1.2,0-1.6-0.4-1.6-1.8v-9.1H204.4z     M193.7,65.8V71c0,1.1,0.1,1.9,0.3,2.4c0.4,1.2,1.4,1.8,3,1.8c1.2,0,1.9-0.3,2.4-1.1l0.3,0.9h1.5v-9.1h-2.3v4.6    c0,2-0.4,2.7-1.6,2.7c-1,0-1.4-0.7-1.4-2.5v-5h-2.2V65.8z M183.2,73.4c0.6,1.2,1.9,1.7,3.8,1.7c2.6,0,3.8-0.9,3.8-2.9    c0-1-0.3-1.8-0.8-2.2c-0.5-0.4-1.2-0.5-2.6-0.7c-1.2-0.1-1.6-0.4-1.6-1c0-0.7,0.5-1.1,1.4-1.1s1.3,0.2,1.8,0.9l1.6-0.9    c-0.7-1.2-1.9-1.7-3.6-1.7c-2.1,0-3.3,1-3.3,2.9c0,1.7,0.8,2.4,3.1,2.7c1.2,0.1,1.2,0.1,1.5,0.3c0.3,0.1,0.5,0.4,0.5,0.8    c0,0.8-0.6,1.2-1.8,1.2c-1.1,0-1.5-0.2-2.1-0.9L183.2,73.4z M173,75h2.2v-4.7c0-2,0.4-2.7,1.6-2.7c1.1,0,1.5,0.7,1.5,2.5v5h2.2    v-5.2c0-1.1-0.1-1.8-0.3-2.3c-0.4-1.2-1.5-1.8-3-1.8c-1.2,0-1.9,0.3-2.4,1l-0.2-0.8h-1.7L173,75L173,75z M167.7,70.9    c0,1.7-0.5,2.5-1.7,2.5s-1.7-0.7-1.7-2.5v-1.1c0-1.7,0.5-2.5,1.7-2.5s1.7,0.7,1.7,2.5V70.9z M162,71.1c0,2.9,1.2,4.1,4,4.1    s3.9-1.2,3.9-4.1v-1.4c0-2.9-1.2-4.1-3.9-4.1c-2.8,0-4,1.2-4,4.1V71.1z M158,72.5c-0.4,0.6-0.9,0.9-1.7,0.9    c-1.2,0-1.7-0.8-1.7-2.4v-1c0-1.8,0.5-2.6,1.7-2.6c0.7,0,1.1,0.2,1.6,0.9l1.7-0.9c-0.7-1.2-1.8-1.8-3.4-1.8    c-1.3,0-2.3,0.4-2.9,1.3c-0.6,0.7-0.8,1.7-0.8,3.2v0.6c0,3,1.2,4.4,3.8,4.4c1.6,0,2.7-0.6,3.5-1.7L158,72.5z M142.2,75h2.3v-2.3    h-2.3V75z M133.6,69.4v-0.2c0-1.2,0.6-1.9,1.8-1.9s1.8,0.7,1.8,1.9v0.2H133.6z M133.6,70.9h5.6v-0.8c0-3.2-1.1-4.5-3.9-4.5    s-3.9,1.3-3.9,4.5v0.6c0,3.1,1.2,4.4,4,4.4c1.9,0,3-0.5,3.8-1.7l-1.6-0.9c-0.5,0.7-1,0.9-1.9,0.9c-1.3,0-2-0.8-2-2.2v-0.3H133.6z     M124.8,67.6v3.6c0,3.2,0.6,3.8,3.7,3.8h0.3v-1.8h-0.3c-1.2,0-1.6-0.4-1.6-1.8v-3.8h1.8v-1.7h-1.8v-2.7h-2l-0.1,2.7h-1v1.7    C123.8,67.6,124.8,67.6,124.8,67.6z M118.9,70.9v1c0,0.6,0,0.9-0.2,1.1c-0.2,0.3-0.7,0.5-1.4,0.5c-1.2,0-1.6-0.3-1.6-1.2    c0-0.9,0.4-1.3,1.6-1.3L118.9,70.9L118.9,70.9z M118.9,69.4H117c-2.6,0-3.4,0.7-3.4,2.9c0,2.1,0.9,2.8,3.1,2.8    c1.2,0,1.9-0.2,2.5-0.7l0.1,0.5h1.7v-5.5c0-1.1-0.1-1.7-0.3-2.3c-0.5-1-1.6-1.5-3.2-1.5s-2.8,0.5-3.6,1.6l1.5,1.1    c0.5-0.6,1.1-0.9,1.9-0.9c1.1,0,1.6,0.5,1.6,1.6C118.9,69,118.9,69.4,118.9,69.4z M105.4,69.4v-0.2c0-1.2,0.6-1.9,1.8-1.9    c1.2,0,1.8,0.7,1.8,1.9v0.2H105.4z M105.4,70.9h5.6v-0.8c0-3.2-1.1-4.5-3.9-4.5s-3.9,1.3-3.9,4.5v0.6c0,3.1,1.2,4.4,4,4.4    c1.9,0,3-0.5,3.8-1.7l-1.6-0.9c-0.5,0.7-1,0.9-1.9,0.9c-1.3,0-2-0.8-2-2.2L105.4,70.9L105.4,70.9z M95.5,75h2.2v-4.5    c0-2.1,0.4-3,1.4-3c0.4,0,0.7,0.1,1.2,0.5l1-1.8c-0.7-0.4-1.3-0.6-2-0.6c-0.8,0-1.3,0.2-1.9,0.9l-0.3-0.7h-1.7V75H95.5z     M91.2,72.5c-0.4,0.6-0.9,0.9-1.7,0.9c-1.2,0-1.7-0.8-1.7-2.4v-1c0-1.8,0.5-2.6,1.7-2.6c0.7,0,1.1,0.2,1.6,0.9l1.7-0.9    c-0.7-1.2-1.8-1.8-3.4-1.8c-1.3,0-2.3,0.4-2.9,1.3c-0.6,0.7-0.8,1.7-0.8,3.2v0.6c0,3,1.2,4.4,3.8,4.4c1.6,0,2.7-0.6,3.5-1.7    L91.2,72.5z"></path>
		<path class="st1" d="M381.3,47.7V34.3h1.9c3.3,0,4.2,1,4.3,4.8v3.8c-0.1,3.9-1,4.9-4.3,4.8C383.2,47.7,381.3,47.7,381.3,47.7z     M377,51.2h7.1c5.5,0.1,8-2.5,7.9-8v-4.5c0.1-5.5-2.4-8-7.9-8H377V51.2z M357.1,51.2h4.3v-13l7.2,13h4.3V30.8h-4.3v13l-7.2-13    h-4.3V51.2z M338,30.8v12.8c0,2.8,0.3,4.1,1,5.2c1.3,1.9,3.3,2.7,6.5,2.7c3.1,0,4.9-0.7,6.3-2.3c1-1.2,1.3-2.5,1.3-5.6V30.8h-4.4    v12.8c0,1.5-0.1,2.3-0.3,2.9c-0.5,1.1-1.2,1.5-2.8,1.5c-1.5,0-2.2-0.4-2.7-1.3c-0.3-0.6-0.4-1.4-0.4-3.1V30.8H338z M324.4,47.7    v-5.1h3.7c1.7,0,2.4,0.7,2.4,2.6c0,1.8-0.7,2.6-2.4,2.6L324.4,47.7L324.4,47.7z M324.4,39.1v-4.8h3.4c1.7,0,2.4,0.7,2.4,2.4    s-0.7,2.4-2.4,2.4C327.8,39.1,324.4,39.1,324.4,39.1z M320.1,51.2h8.4c2.3,0,3.5-0.3,4.6-1.1c1.3-1,1.9-2.5,1.9-4.6    c0-1.5-0.3-2.8-0.8-3.7c-0.3-0.4-0.4-0.6-1.3-1.3c1.2-0.9,1.7-2.2,1.7-4.2c0-1.9-0.6-3.4-1.7-4.3c-1.1-0.9-2.3-1.3-4.8-1.3h-8    L320.1,51.2L320.1,51.2z M306.1,39.7v-5.4h3c2.1,0,2.9,0.7,2.9,2.7s-0.8,2.7-2.8,2.7H306.1z M306.2,43.1h2.1l3.8,8.1h4.9l-4.4-8.4    c2.6-0.7,3.7-2.4,3.7-5.9c0-2.1-0.5-3.5-1.5-4.5c-1.1-1.1-2.5-1.5-5.3-1.5h-7.7v20.4h4.4V43.1z M285.5,51.2h13v-3.6h-8.6v-4.9h7.2    v-3.6h-7.2v-4.7h8.5v-3.6h-12.9V51.2z M272.1,51.2h3.9l6.9-20.4h-4.4l-4.4,14.6l-4.4-14.6h-4.4L272.1,51.2z M248.8,47.9    c0.6,1.1,1.2,1.7,2.1,2.2c1.4,0.9,3.5,1.4,5.7,1.4c2.5,0,4.5-0.6,5.7-1.7c1.1-1,1.7-2.5,1.7-4.5c0-2.2-0.7-3.7-2-4.6    c-1-0.7-1.7-0.9-4.3-1.5c-2.9-0.7-3.8-1.4-3.8-3c0-1.4,1-2.3,2.6-2.3s2.7,0.6,3.7,1.9l3.3-2.1c-1.3-2.2-3.5-3.3-6.8-3.3    c-4.5,0-6.9,2.1-6.9,6c0,3.4,1.6,5.1,5.8,6.1c2.8,0.7,2.8,0.7,3.4,1.1c0.5,0.3,0.9,1,0.9,1.8c0,1.6-1.1,2.4-3.2,2.4    c-2.2,0-3.5-0.7-4.5-2.1L248.8,47.9z M239.2,43.1h3.1v1.1c0,2.6-1,3.7-3.3,3.7c-2.5,0-3.3-1.2-3.3-5v-3.8c0-3.8,0.8-5.1,3.3-5.1    c1.9,0,2.9,0.9,3.1,2.8l4-0.3c-0.2-4.1-2.5-6-7.2-6c-2.8,0-4.6,0.6-5.9,2.1c-1.2,1.3-1.7,3-1.7,6.2v4.4c0,2.9,0.4,4.5,1.4,5.8    c1.3,1.7,3.2,2.5,6.3,2.5s5-0.7,6.4-2.4c1.1-1.3,1.4-2.8,1.4-5.8v-3.5h-7.4v3.3H239.2z M211.8,51.2h4.3v-13l7.2,13h4.3V30.8h-4.3    v13l-7.2-13h-4.3V51.2z M192.7,30.8v12.8c0,2.8,0.3,4.1,1,5.2c1.3,1.9,3.3,2.7,6.5,2.7c3.1,0,4.9-0.7,6.3-2.3    c1-1.2,1.3-2.5,1.3-5.6V30.8h-4.4v12.8c0,1.5-0.1,2.3-0.3,2.9c-0.5,1.1-1.2,1.5-2.8,1.5c-1.5,0-2.2-0.4-2.7-1.3    c-0.3-0.6-0.4-1.4-0.4-3.1V30.8H192.7z M173.9,51.2h4.4v-8.5h6v8.5h4.4V30.8h-4.4v8.3h-6v-8.3h-4.4V51.2z M166.6,45.2    c-0.2,1.9-1.2,2.8-3.2,2.8c-2.4,0-3.1-1.2-3.1-5v-3.8c0-3.8,0.7-5.1,3.1-5.1c1.8,0,2.7,0.9,3,2.8l4-0.3c-0.2-4.1-2.4-6-7-6    c-2.7,0-4.5,0.6-5.8,2.1c-1.2,1.3-1.6,3-1.6,6.1v4.5c0,2.9,0.4,4.5,1.3,5.8c1.3,1.7,3.1,2.5,6.1,2.5c2.7,0,4.7-0.6,5.9-1.9    c1-1,1.4-2.1,1.5-3.9L166.6,45.2z M137.8,47.9c0.6,1.1,1.2,1.7,2.1,2.2c1.4,0.9,3.5,1.4,5.7,1.4c2.5,0,4.5-0.6,5.7-1.7    c1.1-1,1.7-2.5,1.7-4.5c0-2.2-0.7-3.7-2-4.6c-1-0.7-1.7-0.9-4.3-1.5c-2.9-0.7-3.8-1.4-3.8-3c0-1.4,1-2.3,2.6-2.3s2.7,0.6,3.7,1.9    l3.3-2.1c-1.3-2.2-3.5-3.3-6.8-3.3c-4.5,0-6.9,2.1-6.9,6c0,3.4,1.6,5.1,5.8,6.1c2.8,0.7,2.8,0.7,3.4,1.1c0.5,0.3,0.9,1,0.9,1.8    c0,1.6-1.1,2.4-3.2,2.4c-2.2,0-3.5-0.7-4.5-2.1L137.8,47.9z M125.6,39.7v-5.4h3c2.1,0,2.9,0.7,2.9,2.7s-0.8,2.7-2.8,2.7H125.6z     M125.6,43.1h2.1l3.8,8.1h4.9l-4.4-8.4c2.6-0.7,3.7-2.4,3.7-5.9c0-2.1-0.5-3.5-1.5-4.5c-1.1-1.1-2.5-1.5-5.3-1.5h-7.7v20.4h4.4    V43.1z M113.1,43c0,3.7-0.8,4.9-3.3,4.9s-3.3-1.2-3.3-4.9v-4.1c0-3.7,0.8-4.9,3.3-4.9s3.3,1.2,3.3,4.9V43z M102.1,43.4    c0,2.8,0.4,4.4,1.4,5.7c1.3,1.7,3.3,2.4,6.3,2.4c2.9,0,4.7-0.6,6-2.1c1.3-1.3,1.7-3,1.7-6v-4.8c0-2.8-0.4-4.4-1.4-5.7    c-1.3-1.7-3.3-2.4-6.3-2.4c-2.9,0-4.6,0.6-6,2.1c-1.3,1.3-1.7,3-1.7,6V43.4z M86.9,51.2h4.4v-8.4h6.9v-3.6h-6.9v-4.9h8.3v-3.6    H86.9V51.2z"></path>
	</g>
	<g>
		<polygon class="st2" points="41.3,46.9 53.7,54.1 66.2,46.9 53.7,39.8   "></polygon>
		<polygon class="st3" points="53.1,21.9 53.1,7.5 40.6,0.4 40.6,14.7   "></polygon>
		<polygon class="st4" points="25.5,38.6 25.5,24.3 13.1,31.4 13.1,45.7   "></polygon>
		<polygon class="st5" points="0,7.1 39.9,30.2 52.4,23.1 12.4,0   "></polygon>
		<polygon class="st6" points="39.3,77.6 39.3,31.4 26.9,24.3 26.8,70.4   "></polygon>
		<polygon class="st7" points="80.6,22.6 80.6,8.3 40.6,31.4 40.6,45.7   "></polygon>
	</g>
</g>
</svg>