<svg xmlns="http://www.w3.org/2000/svg" width="90.236" height="31.682" viewBox="0 0 90.236 31.682"><path id="Path_222" data-name="Path 222" d="M665.3,63.754V72.89a4.156,4.156,0,0,1-.959,3,4.07,4.07,0,0,1-5.271,0,4.151,4.151,0,0,1-.96-3V63.754h-3.233V73a6.9,6.9,0,0,0,1.86,5.135,6.267,6.267,0,0,0,3.333,1.672l.144.026.062.011a8.4,8.4,0,0,0,1.384.112l.046,0,.047,0a8.4,8.4,0,0,0,1.384-.112l.062-.011.143-.026a6.267,6.267,0,0,0,3.333-1.672A6.9,6.9,0,0,0,668.538,73V63.754Zm-46.927,8.06a6.543,6.543,0,1,1,6.544,6.544,6.551,6.551,0,0,1-6.544-6.544m-1.6,0a8.141,8.141,0,1,0,8.141-8.14,8.15,8.15,0,0,0-8.141,8.14m68-.255a5.061,5.061,0,1,1,5.06,5.06,5.065,5.065,0,0,1-5.06-5.06m-3.336,0a8.4,8.4,0,1,0,8.4-8.4,8.406,8.406,0,0,0-8.4,8.4m-69.7-9.894V81.907l0,.046a3.357,3.357,0,0,1-.811,2.237A3.868,3.868,0,0,1,608,85.2v1.479a5.265,5.265,0,0,0,4.013-1.479,4.8,4.8,0,0,0,1.212-3.183V82c0-.047,0-.082,0-.106V61.666Zm82.664-3.105a2.008,2.008,0,0,0-.6,1.451,1.968,1.968,0,0,0,.614,1.452,2.045,2.045,0,0,0,1.44.574,2.054,2.054,0,0,0,2.052-2.053,1.97,1.97,0,0,0-.615-1.453,2.043,2.043,0,0,0-1.437-.574,2.01,2.01,0,0,0-1.452.6M640.677,77.785a5.96,5.96,0,0,1-2.23-2.318,7.432,7.432,0,0,1,0-6.777,5.973,5.973,0,0,1,2.23-2.319,6.177,6.177,0,0,1,3.195-.832,6.261,6.261,0,0,1,3.21.832,5.953,5.953,0,0,1,2.245,2.319,7.432,7.432,0,0,1,0,6.777,5.94,5.94,0,0,1-2.245,2.318,6.244,6.244,0,0,1-3.21.833,6.161,6.161,0,0,1-3.195-.833m-4.5-20V72.324a8.629,8.629,0,0,0,1.151,4.151,7.114,7.114,0,0,0,2.668,2.568,8.9,8.9,0,0,0,3.968.913,7.713,7.713,0,0,0,3.924-1.012,7.232,7.232,0,0,0,2.749-2.794,8.215,8.215,0,0,0,1-4.072,8.3,8.3,0,0,0-1-4.087,7.1,7.1,0,0,0-2.749-2.794,7.807,7.807,0,0,0-3.924-1,7.265,7.265,0,0,0-3.715.967,6.69,6.69,0,0,0-2.587,2.689V57.781ZM679.159,55a5.741,5.741,0,0,0-4.385,1.662,5.381,5.381,0,0,0-1.371,3.715V63.9h-2.168v3.237H673.4V79.956h3.237V67.137h3.341V63.9h-3.341V60.343l0-.081a2.164,2.164,0,0,1,.5-1.392,2.707,2.707,0,0,1,2.018-.632h.936V55Z" transform="translate(-608 -55)" fill="#090808"></path></svg>