<svg xmlns="http://www.w3.org/2000/svg" viewBox="0 0 288.88 82.91"><defs><style>.cls-1,.cls-2{fill:#004b89;}.cls-2,.cls-3{fill-rule:evenodd;}.cls-3{fill:#afcb37;}</style></defs><g id="Ebene_2" data-name="Ebene 2"><g id="Ebene_1-2" data-name="Ebene 1"><path class="cls-1" d="M49.61.09V54.22c0,3.12-1.53,4.69-4.6,4.69h-8.1a4.74,4.74,0,0,1-3.07-.9,8.85,8.85,0,0,1-2.13-2.94L16.28,23.7a55.26,55.26,0,0,1-3.58-9.12h-.94a67.41,67.41,0,0,1,.6,9.37v35H0V4.77Q0,.09,4.69.09h7.93A4.76,4.76,0,0,1,15.69,1a9.14,9.14,0,0,1,2.13,2.94L32.73,34.35q2.15,4.27,4.27,9.47h.85c-.34-4.44-.51-7.73-.51-9.89V.09Z"></path><path class="cls-1" d="M122.16,43.31l-10.49-2.82q-5.79-1.7-8-4.64t-2.22-8.15q0-6.56,4-9.29t13.86-2.72a123.07,123.07,0,0,1,19.43,1.61l-.85,8.1q-10.74-.16-16.2-.17c-2,0-3.36,0-4.13.05a12,12,0,0,0-2.3.29q-1.15.25-1.41.81a4.18,4.18,0,0,0-.26,1.67,5.7,5.7,0,0,0,.05.76,1.79,1.79,0,0,0,.21.64,3.24,3.24,0,0,0,.3.47,1.68,1.68,0,0,0,.47.39,3,3,0,0,0,.55.29l.77.3c.37.14.65.24.85.3l1.11.3c.54.14,1,.24,1.24.3l10.74,2.9q5.63,1.62,8,4.3t2.39,8q0,7.5-4.35,10.19t-14.92,2.68a113.36,113.36,0,0,1-18.84-1.45l.77-8.18q3.06.16,14.58.17c4.37,0,7.23-.18,8.56-.55a2.47,2.47,0,0,0,2-2.6,5.86,5.86,0,0,0,0-.77,1.79,1.79,0,0,0-.21-.64,2.12,2.12,0,0,0-.34-.47A2.66,2.66,0,0,0,127,45l-.6-.34a4.5,4.5,0,0,0-.81-.34,7.3,7.3,0,0,0-.94-.3l-1.19-.3a10.78,10.78,0,0,1-1.28-.38Z"></path><path class="cls-1" d="M228.55,54.22l.34,4.26q-8,.51-25.15.51a10.65,10.65,0,0,1-7.54-2.64,9.16,9.16,0,0,1-2.86-7.08V9.72a9.16,9.16,0,0,1,2.86-7.08A10.65,10.65,0,0,1,203.74,0q17.13,0,25.15.51l-.34,4.26H204.68Q199,4.77,199,11V25.4h26.25v4.52H199V48.08q0,6.14,5.71,6.14Z"></path><polygon class="cls-1" points="253.1 39.55 251.22 39.55 238.35 58.91 232.38 58.91 246.79 37.51 233.41 17.65 239.37 17.65 251.05 35.21 253.27 35.21 264.95 17.65 270.91 17.65 257.53 37.51 272.02 58.91 265.97 58.91 253.1 39.55 253.1 39.55"></polygon><path class="cls-2" d="M77,23.81h0Zm0,0A13.93,13.93,0,0,0,71.89,50.9a13.67,13.67,0,0,0,5.09.76v8.18h0a22.11,22.11,0,1,1,0-44.21h0v8.18Zm0,27.85h0Z"></path><path class="cls-3" d="M77,23.81a13.94,13.94,0,1,1,0,27.85v8.18a22.11,22.11,0,1,0,0-44.21v8.18Z"></path><path class="cls-1" d="M166.67,17.45a20.53,20.53,0,0,1,7,1.69l.8-1.83a22.61,22.61,0,0,0-31.62,19.15h0a22.12,22.12,0,0,0,22.63,23.38h0V51.66a13.59,13.59,0,0,1-5.08-.76A13.94,13.94,0,0,1,151,36.69h0a14.12,14.12,0,0,1,12.84-13.28,14,14,0,0,1,7.31,1.37l.81-1.85a15.77,15.77,0,0,0-8.28-1.53A16.16,16.16,0,0,0,149,36.45h-4.18A20.65,20.65,0,0,1,166.67,17.45Z"></path><polygon class="cls-1" points="165.48 51.66 165.48 51.66 165.46 51.66 165.48 51.66"></polygon><path class="cls-3" d="M171.17,24.78a13.94,13.94,0,0,1-5.74,26.88v8.18a22.35,22.35,0,0,0,7.81-1.21,22.11,22.11,0,0,0,1.21-41.33l-3.23,7.37Z"></path><path class="cls-1" d="M113.35,79.68a2.72,2.72,0,0,1-2.51-1.28h0l0,.57c0,.34,0,.71,0,1.11v2.83h-.67V72.12h.57l.13,1.06h0A2.68,2.68,0,0,1,113.36,72a2.75,2.75,0,0,1,2.29,1,4.51,4.51,0,0,1,.79,2.88,4.33,4.33,0,0,1-.83,2.84A2.77,2.77,0,0,1,113.35,79.68Zm0-.6a2.07,2.07,0,0,0,1.77-.85,3.88,3.88,0,0,0,.63-2.37q0-3.27-2.37-3.27a2.4,2.4,0,0,0-1.91.71,3.63,3.63,0,0,0-.61,2.33v.22a4.1,4.1,0,0,0,.59,2.49A2.28,2.28,0,0,0,113.33,79.08Z"></path><path class="cls-1" d="M124.65,75.82a4.2,4.2,0,0,1-.89,2.84,3,3,0,0,1-2.43,1,3.08,3.08,0,0,1-1.72-.47,2.93,2.93,0,0,1-1.14-1.35,4.86,4.86,0,0,1-.4-2A4.15,4.15,0,0,1,119,73a3,3,0,0,1,2.42-1,3,3,0,0,1,2.4,1A4.2,4.2,0,0,1,124.65,75.82Zm-5.87,0a3.84,3.84,0,0,0,.67,2.39,2.54,2.54,0,0,0,3.81,0,3.78,3.78,0,0,0,.68-2.39,3.67,3.67,0,0,0-.69-2.38,2.29,2.29,0,0,0-1.91-.85,2.26,2.26,0,0,0-1.89.84A3.76,3.76,0,0,0,118.78,75.82Z"></path><path class="cls-1" d="M132.64,79.55l-1.62-5c-.11-.34-.24-.83-.41-1.49h0l-.14.51-.31,1-1.65,5h-.67l-2.13-7.43h.73l1.19,4.3c.27,1.07.46,1.85.54,2.36h0c.27-1.07.47-1.78.59-2.13l1.53-4.53h.62l1.45,4.52c.33,1.07.53,1.77.61,2.12h0c0-.29.22-1.09.54-2.38l1.14-4.26h.68l-2,7.43Z"></path><path class="cls-1" d="M139.83,79.68a3.27,3.27,0,0,1-2.53-1,4,4,0,0,1-.9-2.8,4.41,4.41,0,0,1,.87-2.85A2.91,2.91,0,0,1,139.63,72a2.53,2.53,0,0,1,2.07.92,3.76,3.76,0,0,1,.76,2.49v.54h-5.35a3.57,3.57,0,0,0,.71,2.34,2.52,2.52,0,0,0,2,.81A6.27,6.27,0,0,0,141,79a7.61,7.61,0,0,0,1.22-.38v.61a4.75,4.75,0,0,1-1.17.37A6,6,0,0,1,139.83,79.68Zm-.2-7.11a2.23,2.23,0,0,0-1.72.71,3.27,3.27,0,0,0-.76,2h4.59a3.21,3.21,0,0,0-.56-2A1.86,1.86,0,0,0,139.63,72.57Z"></path><path class="cls-1" d="M147.44,72a6.27,6.27,0,0,1,1,.1l-.13.65a3.83,3.83,0,0,0-1-.12,1.86,1.86,0,0,0-1.56.81,3.27,3.27,0,0,0-.61,2v4.1h-.68V72.12h.58l.06,1.34h0a3.12,3.12,0,0,1,1-1.15A2.24,2.24,0,0,1,147.44,72Z"></path><path class="cls-1" d="M153,79.68a3.27,3.27,0,0,1-2.53-1,4,4,0,0,1-.9-2.8A4.41,4.41,0,0,1,150.4,73,2.91,2.91,0,0,1,152.76,72a2.53,2.53,0,0,1,2.07.92,3.76,3.76,0,0,1,.76,2.49v.54h-5.35a3.57,3.57,0,0,0,.71,2.34,2.52,2.52,0,0,0,2,.81,6.19,6.19,0,0,0,1.12-.09,7.31,7.31,0,0,0,1.22-.38v.61a4.82,4.82,0,0,1-1.16.37A6.18,6.18,0,0,1,153,79.68Zm-.2-7.11a2.23,2.23,0,0,0-1.72.71,3.33,3.33,0,0,0-.76,2h4.6a3.21,3.21,0,0,0-.57-2A1.86,1.86,0,0,0,152.76,72.57Z"></path><path class="cls-1" d="M160.36,72a3,3,0,0,1,1.4.3,2.75,2.75,0,0,1,1.05,1h0c0-.57,0-1.13,0-1.69V68.91h.67V79.55H163l-.17-1.14h-.06a2.74,2.74,0,0,1-2.43,1.27,2.92,2.92,0,0,1-2.35-1,4.17,4.17,0,0,1-.82-2.79,4.65,4.65,0,0,1,.81-3A2.81,2.81,0,0,1,160.36,72Zm0,.62a2.07,2.07,0,0,0-1.82.85,4.22,4.22,0,0,0-.62,2.48c0,2.11.82,3.16,2.46,3.16a2.2,2.2,0,0,0,1.84-.73,3.82,3.82,0,0,0,.59-2.41v-.12a4.12,4.12,0,0,0-.58-2.48A2.2,2.2,0,0,0,160.36,72.59Z"></path><path class="cls-1" d="M172.75,72a2.85,2.85,0,0,1,2.35,1,4.54,4.54,0,0,1,.79,2.87,4.39,4.39,0,0,1-.83,2.86,2.87,2.87,0,0,1-2.34,1,3.2,3.2,0,0,1-1.43-.32,2.56,2.56,0,0,1-1-.93h-.06L170,79.55h-.43V68.91h.68v2.67q0,.6,0,1.11l0,.58h0a2.72,2.72,0,0,1,1-1A3.06,3.06,0,0,1,172.75,72Zm0,.62a2.2,2.2,0,0,0-1.88.75,4.18,4.18,0,0,0-.57,2.48v.12a3.89,3.89,0,0,0,.59,2.41,2.23,2.23,0,0,0,1.84.73,2.12,2.12,0,0,0,1.84-.85,4.08,4.08,0,0,0,.61-2.42C175.17,73.66,174.36,72.59,172.74,72.59Z"></path><path class="cls-1" d="M176.7,72.12h.7L179,76.29c.48,1.28.78,2.14.91,2.59h0c.19-.59.5-1.47.94-2.63l1.57-4.13h.7l-3.33,8.63a6.73,6.73,0,0,1-.68,1.42,1.79,1.79,0,0,1-.64.56,2,2,0,0,1-.88.18,3.27,3.27,0,0,1-.87-.14v-.59a3.3,3.3,0,0,0,.85.11,1.15,1.15,0,0,0,.62-.17,1.36,1.36,0,0,0,.48-.5,7.16,7.16,0,0,0,.5-1.1l.37-1Z"></path><path class="cls-1" d="M192.11,74.51h3.68v4.56a8.24,8.24,0,0,1-3.26.61,4.74,4.74,0,0,1-3.62-1.33,5.3,5.3,0,0,1-1.26-3.79,5.66,5.66,0,0,1,.62-2.7A4.42,4.42,0,0,1,190.06,70a5.45,5.45,0,0,1,2.68-.64,6.88,6.88,0,0,1,2.93.6l-.28.63a6.32,6.32,0,0,0-2.69-.6,4.14,4.14,0,0,0-3.14,1.21,4.62,4.62,0,0,0-1.15,3.3,4.67,4.67,0,0,0,1.1,3.39,4.28,4.28,0,0,0,3.23,1.14,6.22,6.22,0,0,0,2.34-.39V75.17h-3Z"></path><path class="cls-1" d="M206.27,79.55h-.58l-2.19-7.71c-.18-.64-.32-1.16-.41-1.56-.07.39-.18.85-.31,1.37s-.87,3.14-2.21,7.9H200l-2.75-10H198L199.72,76l.19.72.16.63c.05.19.09.38.13.56s.07.36.11.54q.16-.93.69-2.82l1.71-6.07h.78l2,7c.23.8.4,1.45.5,1.94.06-.32.13-.67.23-1s.79-3,2.11-7.86h.7Z"></path><path class="cls-1" d="M215.61,76h-4.07l-1.39,3.53h-.77l4-10h.44l3.94,10H217Zm-3.81-.63h3.57L214,71.79c-.11-.28-.25-.68-.41-1.18a11,11,0,0,1-.4,1.19Z"></path><path class="cls-1" d="M230.07,79.55h-.7V74.63h-5.84v4.92h-.7v-10h.7V74h5.84V69.55h.7Z"></path><path class="cls-1" d="M231.49,72.12h.69l1.57,4.17c.48,1.28.79,2.14.91,2.59h.05c.19-.59.5-1.47.93-2.63l1.57-4.13h.7l-3.33,8.63a6.84,6.84,0,0,1-.67,1.42,2,2,0,0,1-.64.56,2,2,0,0,1-.89.18,3.27,3.27,0,0,1-.87-.14v-.59a3.37,3.37,0,0,0,.86.11,1.14,1.14,0,0,0,.61-.17,1.36,1.36,0,0,0,.48-.5,6.31,6.31,0,0,0,.5-1.1l.37-1Z"></path><path class="cls-1" d="M245,72.12v.47l-1.54.09a2.65,2.65,0,0,1,.62,1.69,2.31,2.31,0,0,1-.71,1.74,2.73,2.73,0,0,1-1.92.66,3.85,3.85,0,0,1-.71,0,1.77,1.77,0,0,0-.62.5,1,1,0,0,0-.21.61.56.56,0,0,0,.27.52,1.84,1.84,0,0,0,.91.16h1.29a3.08,3.08,0,0,1,1.86.49,1.71,1.71,0,0,1,.64,1.45,2.06,2.06,0,0,1-1,1.81,4.86,4.86,0,0,1-2.72.64,3.72,3.72,0,0,1-2.17-.54,1.74,1.74,0,0,1-.77-1.5,1.8,1.8,0,0,1,.47-1.27,2.53,2.53,0,0,1,1.29-.7,1.27,1.27,0,0,1-.53-.4,1,1,0,0,1-.21-.61,1.6,1.6,0,0,1,.95-1.31,2.14,2.14,0,0,1-1-.84,2.38,2.38,0,0,1-.36-1.31,2.35,2.35,0,0,1,.71-1.78,2.65,2.65,0,0,1,1.91-.68,3.35,3.35,0,0,1,1.13.15Zm-6,8.69c0,1,.76,1.53,2.27,1.53,1.95,0,2.93-.63,2.93-1.87a1.06,1.06,0,0,0-.46-1,2.78,2.78,0,0,0-1.48-.3H241C239.62,79.2,238.94,79.73,238.94,80.81Zm.56-6.38a1.72,1.72,0,0,0,.53,1.34,2.31,2.31,0,0,0,2.82,0,1.79,1.79,0,0,0,.5-1.36,1.86,1.86,0,0,0-.51-1.43,2,2,0,0,0-1.43-.47,1.77,1.77,0,0,0-1.91,1.92Z"></path><path class="cls-1" d="M246.38,70.05c0-.44.14-.65.43-.65a.37.37,0,0,1,.33.17.81.81,0,0,1,.12.48.87.87,0,0,1-.12.49.38.38,0,0,1-.33.18C246.52,70.72,246.38,70.49,246.38,70.05Zm.77,9.5h-.67V72.12h.67Z"></path><path class="cls-1" d="M252.64,79.68a3.23,3.23,0,0,1-2.52-1,4,4,0,0,1-.91-2.8,4.35,4.35,0,0,1,.88-2.85A2.89,2.89,0,0,1,252.44,72a2.57,2.57,0,0,1,2.08.92,3.81,3.81,0,0,1,.75,2.49v.54h-5.35a3.52,3.52,0,0,0,.72,2.34,2.49,2.49,0,0,0,2,.81,6.12,6.12,0,0,0,1.12-.09A7.31,7.31,0,0,0,255,78.6v.61a4.82,4.82,0,0,1-1.16.37A6.18,6.18,0,0,1,252.64,79.68Zm-.2-7.11a2.23,2.23,0,0,0-1.72.71,3.39,3.39,0,0,0-.76,2h4.6a3.28,3.28,0,0,0-.56-2A1.88,1.88,0,0,0,252.44,72.57Z"></path><path class="cls-1" d="M262.51,79.55V74.73A2.37,2.37,0,0,0,262,73.1a1.93,1.93,0,0,0-1.47-.51,2.52,2.52,0,0,0-1.95.67,3.2,3.2,0,0,0-.62,2.19v4.1h-.67V72.12h.57l.13,1h0A2.78,2.78,0,0,1,260.65,72c1.68,0,2.53.91,2.53,2.72v4.86Z"></path><path class="cls-1" d="M268.58,79.68a3.23,3.23,0,0,1-2.52-1,4,4,0,0,1-.91-2.8A4.35,4.35,0,0,1,266,73,2.89,2.89,0,0,1,268.39,72a2.56,2.56,0,0,1,2.07.92,3.82,3.82,0,0,1,.76,2.49v.54h-5.36a3.52,3.52,0,0,0,.72,2.34,2.49,2.49,0,0,0,2,.81A6.12,6.12,0,0,0,269.7,79a7.31,7.31,0,0,0,1.22-.38v.61a4.68,4.68,0,0,1-1.16.37A6.18,6.18,0,0,1,268.58,79.68Zm-.19-7.11a2.25,2.25,0,0,0-1.73.71,3.39,3.39,0,0,0-.76,2h4.6a3.28,3.28,0,0,0-.56-2A1.87,1.87,0,0,0,268.39,72.57Z"></path><path class="cls-1" d="M271.22,8.83a8.81,8.81,0,0,1,4.4-7.65A8.84,8.84,0,0,1,287.69,4.4a8.84,8.84,0,0,1,.05,8.77,8.84,8.84,0,0,1-15.38,0A8.72,8.72,0,0,1,271.22,8.83Zm1.09,0a7.59,7.59,0,0,0,1,3.87,7.78,7.78,0,0,0,2.82,2.82,7.69,7.69,0,0,0,7.74,0,7.83,7.83,0,0,0,2.83-2.83,7.76,7.76,0,0,0,0-7.69A7.75,7.75,0,0,0,284,2.16a7.49,7.49,0,0,0-3.92-1.08A7.74,7.74,0,0,0,273.35,5,7.63,7.63,0,0,0,272.31,8.83Zm10.88-2.2a3,3,0,0,1-.45,1.64,3,3,0,0,1-1.3,1.11L284.23,14H282.8l-2.46-4.23h-2V14h-1.19V3.66h2.48a4.06,4.06,0,0,1,2.6.73A2.66,2.66,0,0,1,283.19,6.63Zm-4.82,2.2h1.31a2.41,2.41,0,0,0,1.68-.55A2,2,0,0,0,282,6.69c0-1.35-.77-2-2.31-2h-1.29Z"></path></g></g></svg>