<svg xmlns="http://www.w3.org/2000/svg" xmlns:xlink="http://www.w3.org/1999/xlink" id="Ebene_1" x="0px" y="0px" width="243.234px" height="97.41px" viewBox="0 0 243.234 97.41" xml:space="preserve"><polygon fill="#8F9599" points="125.584,24.12 125.484,24.12 125.484,24.034 124.843,24.034 124.843,18.029 121.783,18.029  121.783,24.034 121.142,24.034 121.142,24.12 121.042,24.12 121.042,24.57 121.783,24.57 121.783,24.578 124.843,24.578  124.843,24.57 125.584,24.57 "></polygon><polygon fill="#8F9599" points="134.945,24.12 134.846,24.12 134.846,24.034 134.203,24.034 134.203,18.029 131.144,18.029  131.144,24.034 130.502,24.034 130.502,24.12 130.402,24.12 130.402,24.57 131.144,24.57 131.144,24.578 134.203,24.578  134.203,24.57 134.945,24.57 "></polygon><polygon fill="#8F9599" points="116.223,24.12 116.123,24.12 116.123,24.034 115.481,24.034 115.481,18.029 112.422,18.029  112.422,24.034 111.78,24.034 111.78,24.12 111.68,24.12 111.68,24.57 112.422,24.57 112.422,24.578 115.481,24.578 115.481,24.57  116.223,24.57 "></polygon><polygon fill="#8F9599" points="125.955,40.032 125.855,40.032 125.855,39.946 124.976,39.946 124.976,32.584 120.938,32.584  120.938,39.946 120.059,39.946 120.059,40.032 119.959,40.032 119.959,40.581 120.938,40.581 120.938,40.592 124.976,40.592  124.976,40.581 125.955,40.581 "></polygon><polygon fill="#8F9599" points="108.012,40.032 107.913,40.032 107.913,39.946 107.032,39.946 107.032,32.584 102.995,32.584  102.995,39.946 102.114,39.946 102.114,40.032 102.016,40.032 102.016,40.581 102.995,40.581 102.995,40.592 107.032,40.592  107.032,40.581 108.012,40.581 "></polygon><polygon fill="#8F9599" points="143.9,40.032 143.801,40.032 143.801,39.946 142.92,39.946 142.92,32.584 138.883,32.584  138.883,39.946 138.002,39.946 138.002,40.032 137.902,40.032 137.902,40.581 138.883,40.581 138.883,40.592 142.92,40.592  142.92,40.581 143.9,40.581 "></polygon><polygon fill="#8F9599" points="162.186,40.032 162.086,40.032 162.086,39.946 161.206,39.946 161.206,32.584 157.169,32.584  157.169,39.946 156.289,39.946 156.289,40.032 156.189,40.032 156.189,40.581 157.169,40.581 157.169,40.592 161.206,40.592  161.206,40.581 162.186,40.581 "></polygon><g>	<path fill="#8F9599" d="M74.17,46.22c-0.339,0-0.614-0.274-0.614-0.614v-14.45c0-0.34,0.275-0.614,0.614-0.614  c0.339,0,0.614,0.274,0.614,0.614v14.45C74.784,45.945,74.509,46.22,74.17,46.22"></path>	<path fill="#8F9599" d="M171.792,46.22c-0.339,0-0.614-0.274-0.614-0.614V23.88c0-0.339,0.275-0.612,0.614-0.612  s0.614,0.273,0.614,0.612v21.726C172.406,45.945,172.131,46.22,171.792,46.22"></path></g><polygon fill="#8F9599" points="90.068,40.032 89.968,40.032 89.968,39.946 89.088,39.946 89.088,32.584 85.05,32.584 85.05,39.946  84.17,39.946 84.17,40.032 84.071,40.032 84.071,40.581 85.05,40.581 85.05,40.592 89.088,40.592 89.088,40.581 90.068,40.581 "></polygon><g>	<path fill="#8F9599" d="M99.939,29.002H74.246c-0.305,0-0.553-0.247-0.553-0.553c0-0.305,0.248-0.552,0.553-0.552h25.694  c0.306,0,0.553,0.247,0.553,0.552C100.493,28.755,100.246,29.002,99.939,29.002"></path>	<path fill="#8F9599" d="M158.166,29.002h-11.82c-0.306,0-0.553-0.247-0.553-0.553c0-0.305,0.247-0.552,0.553-0.552h11.82  c0.307,0,0.553,0.247,0.553,0.552C158.719,28.755,158.473,29.002,158.166,29.002"></path>	<path fill="#8F9599" d="M171.732,21.856H159.91c-0.307,0-0.553-0.247-0.553-0.553c0-0.305,0.246-0.552,0.553-0.552h11.822  c0.306,0,0.553,0.247,0.553,0.552C172.285,21.609,172.038,21.856,171.732,21.856"></path>	<path fill="#8F9599" d="M172.58,15.518c0-0.015,0-0.032,0-0.035c0-4.995-3.291-9.06-7.336-9.06c-4.047,0-7.336,4.064-7.336,9.06  v0.058c0,0.009,0,0.017,0,0.026v3.942c0,0.101,0.08,0.182,0.18,0.182h14.318c0.1,0,0.181-0.081,0.181-0.182v-3.942  C172.587,15.549,172.584,15.533,172.58,15.518"></path>	<path fill="#8F9599" d="M165.246,2.566c-0.622,0-1.125,0.546-1.125,1.22c0,0.673,0.503,1.219,1.125,1.219s1.125-0.546,1.125-1.219  C166.371,3.112,165.868,2.566,165.246,2.566"></path>	<path fill="#8F9599" d="M123.312,8.134c-1.718,0-2.692,1.719-2.692,1.719v1.172h0.938c0,0,0.045,1.549,1.754,1.549  c1.705,0,1.705-1.555,1.705-1.555h0.991V9.853C126.008,9.853,125.017,8.134,123.312,8.134"></path>	<path fill="#8F9599" d="M158.307,15.436l-19.438-8.624c-0.069-0.031-0.144-0.047-0.22-0.047h-3.204  c-0.043-0.269-0.048-0.437-0.048-0.44c-0.004-0.299-0.245-0.54-0.543-0.54h-2.336c-0.227-0.62-0.787-1.827-1.985-2.906  C129,1.5,126.504-0.1,123.393,0.005c-3.294-0.091-5.93,1.756-7.171,2.873c-1.201,1.079-1.761,2.286-1.988,2.906h-2.336  c-0.298,0-0.54,0.241-0.542,0.54c0,0.005-0.009,0.239-0.08,0.609h-3.252c-0.075,0-0.15,0.016-0.218,0.046l-12.157,5.342h-7.694  c-0.131,0-0.259,0.05-0.358,0.137c-0.007,0.005-0.725,0.623-3.11,1.964c-2.387,1.343-6.639,2.117-6.682,2.124  c-0.177,0.032-0.326,0.148-0.4,0.313c-0.018,0.041-1.838,4.135-2.709,5.891c-0.977,1.398-4.034,3.309-4.065,3.328  c-0.206,0.128-0.302,0.377-0.235,0.609c0.066,0.233,0.279,0.395,0.521,0.394l29.688-0.01c0.284,0,0.518-0.218,0.54-0.5  s-0.178-0.533-0.457-0.577c-0.009-0.002-0.882-0.159-0.89-0.605c-0.01-0.527,0.031-0.862,0.668-1.078l0.216-0.073  c1.934-0.649,5.171-1.738,6.723-4.943c0.917-1.67,0.851-5.797,0.845-5.9l0.125-1.081h3.084c0.3,0,0.542-0.242,0.542-0.542v-0.624  c0-0.3-0.242-0.542-0.542-0.542h-1.084c0.354-0.214,0.693-0.502,0.969-0.946c0.044-0.072,0.072-0.141,0.114-0.212  c0.467-0.591,0.633-1.146,0.683-1.531c0.13-0.412,0.21-0.777,0.25-1.046h2.239c0.252,0,0.47-0.174,0.528-0.417  c0.003-0.015,0.368-1.489,1.789-2.768c1.121-1.008,3.431-2.689,6.45-2.595c2.799-0.106,5.027,1.352,6.41,2.595  c1.406,1.266,1.783,2.754,1.787,2.771c0.06,0.24,0.277,0.414,0.527,0.414h2.239c0.028,0.193,0.085,0.443,0.155,0.717  c0.023,0.373,0.152,0.986,0.668,1.655c0.074,0.14,0.136,0.274,0.224,0.418c0.199,0.318,0.415,0.57,0.644,0.776h-0.836  c-0.3,0-0.543,0.242-0.543,0.542v0.625c0,0.299,0.243,0.542,0.543,0.542h3.086l0.119,1.009c-0.004,0.175-0.068,4.304,0.836,5.948  c1.562,3.229,4.799,4.317,6.734,4.967l0.217,0.073c0.637,0.216,0.678,0.551,0.669,1.077c-0.01,0.448-0.882,0.605-0.891,0.606  c-0.28,0.044-0.479,0.296-0.458,0.577c0.023,0.283,0.257,0.5,0.54,0.5h12.021c0.299,0,0.543-0.241,0.543-0.542V15.932  C158.631,15.717,158.504,15.522,158.307,15.436"></path>	<path fill="#29418F" d="M170.296,93.95c0.515-0.021,0.796-0.032,0.843-0.032h0.137c0.152,0,0.283,0.01,0.392,0.028  c0.106,0.019,0.196,0.058,0.267,0.119c0.07,0.061,0.123,0.146,0.154,0.258c0.033,0.111,0.051,0.26,0.051,0.448h0.313v-2.021h-0.427  l0.07,0.829h-1.8v-1.547c0-0.197,0.003-0.365,0.011-0.506s0.035-0.257,0.082-0.349c0.047-0.093,0.121-0.162,0.219-0.209  c0.099-0.048,0.236-0.075,0.414-0.084l0.887-0.015c0.175,0,0.338,0.019,0.488,0.054c0.149,0.036,0.279,0.104,0.391,0.204  c0.111,0.101,0.197,0.237,0.262,0.412s0.098,0.4,0.098,0.675h0.313l-0.047-1.683h-4.617v0.422l0.693-0.042  c-0.013,0.098-0.021,0.204-0.026,0.321c-0.004,0.118-0.007,0.242-0.007,0.373v4.151v0.281c0,0.132-0.005,0.251-0.017,0.359  c-0.01,0.107-0.037,0.201-0.082,0.279c-0.043,0.078-0.109,0.14-0.198,0.186c-0.089,0.045-0.21,0.069-0.363,0.072v0.318h4.954  l0.057-1.869h-0.328c0,0.283-0.032,0.521-0.099,0.71c-0.065,0.188-0.159,0.341-0.278,0.454c-0.121,0.114-0.266,0.195-0.435,0.243  c-0.168,0.049-0.356,0.075-0.567,0.078l-1.836,0.028c0.012-0.081,0.021-0.183,0.024-0.302c0.005-0.121,0.008-0.271,0.008-0.448  V93.95z M163.448,93.95c0.516-0.021,0.797-0.032,0.844-0.032h0.136c0.153,0,0.283,0.01,0.392,0.028s0.196,0.058,0.267,0.119  c0.071,0.061,0.122,0.146,0.155,0.258c0.032,0.111,0.049,0.26,0.049,0.448h0.313v-2.021h-0.426l0.07,0.829h-1.8v-1.547  c0-0.197,0.004-0.365,0.012-0.506c0.009-0.141,0.035-0.257,0.082-0.349c0.047-0.093,0.119-0.162,0.218-0.209  c0.098-0.048,0.237-0.075,0.416-0.084l0.885-0.015c0.176,0,0.338,0.019,0.487,0.054c0.15,0.036,0.281,0.104,0.392,0.204  c0.111,0.101,0.199,0.237,0.263,0.412s0.096,0.4,0.096,0.675h0.314l-0.048-1.683h-4.616v0.422l0.694-0.042  c-0.014,0.098-0.021,0.204-0.026,0.321c-0.005,0.118-0.007,0.242-0.007,0.373v4.151v0.281c0,0.132-0.006,0.251-0.016,0.359  c-0.012,0.107-0.039,0.201-0.082,0.279c-0.045,0.078-0.111,0.14-0.201,0.186c-0.088,0.045-0.209,0.069-0.362,0.072v0.318h4.955  l0.056-1.869h-0.328c0,0.283-0.033,0.521-0.099,0.71c-0.065,0.188-0.158,0.341-0.278,0.454c-0.121,0.114-0.265,0.195-0.434,0.243  c-0.17,0.049-0.358,0.075-0.567,0.078l-1.838,0.028c0.013-0.081,0.021-0.183,0.026-0.302c0.005-0.121,0.007-0.271,0.007-0.448  V93.95z M156.227,96.918c0.119,0.081,0.248,0.153,0.387,0.215c0.139,0.063,0.283,0.114,0.431,0.155  c0.149,0.041,0.3,0.071,0.45,0.091c0.152,0.021,0.299,0.031,0.443,0.031c0.355,0,0.674-0.045,0.953-0.136  c0.28-0.091,0.516-0.216,0.707-0.377c0.189-0.161,0.334-0.354,0.435-0.577s0.149-0.468,0.149-0.734c0-0.283-0.052-0.53-0.156-0.739  c-0.104-0.21-0.243-0.394-0.414-0.552c-0.172-0.157-0.368-0.297-0.586-0.417c-0.219-0.12-0.443-0.232-0.672-0.338  c-0.228-0.104-0.45-0.208-0.67-0.312c-0.219-0.104-0.414-0.217-0.586-0.342c-0.172-0.126-0.31-0.27-0.414-0.431  s-0.158-0.352-0.158-0.57c0-0.15,0.027-0.294,0.08-0.43c0.054-0.137,0.132-0.256,0.234-0.359c0.104-0.104,0.232-0.186,0.385-0.246  c0.153-0.062,0.33-0.093,0.529-0.093c0.282,0,0.525,0.052,0.732,0.153c0.205,0.103,0.379,0.237,0.52,0.404  c0.141,0.168,0.248,0.36,0.321,0.578s0.118,0.442,0.134,0.675h0.346v-2.105h-0.486l0.037,0.412  c-0.131-0.096-0.269-0.177-0.412-0.241c-0.145-0.063-0.288-0.114-0.434-0.151c-0.146-0.038-0.289-0.064-0.43-0.08  s-0.273-0.023-0.398-0.023c-0.258,0-0.486,0.026-0.684,0.079c-0.197,0.054-0.367,0.125-0.511,0.214  c-0.144,0.09-0.265,0.192-0.359,0.31s-0.172,0.238-0.229,0.363c-0.057,0.125-0.1,0.25-0.125,0.375  c-0.024,0.125-0.036,0.241-0.036,0.352c0,0.284,0.051,0.529,0.153,0.736c0.104,0.206,0.24,0.386,0.412,0.541  c0.17,0.154,0.363,0.291,0.58,0.407c0.217,0.117,0.438,0.229,0.663,0.333c0.226,0.105,0.446,0.209,0.663,0.314  c0.219,0.104,0.411,0.222,0.582,0.351c0.17,0.13,0.307,0.279,0.41,0.448s0.154,0.37,0.154,0.605c0,0.193-0.036,0.364-0.11,0.515  c-0.073,0.15-0.173,0.276-0.3,0.378c-0.126,0.101-0.273,0.178-0.439,0.229c-0.169,0.052-0.346,0.077-0.533,0.077  c-0.252,0-0.49-0.036-0.713-0.109c-0.222-0.074-0.416-0.183-0.582-0.326c-0.168-0.144-0.304-0.323-0.406-0.537  c-0.104-0.214-0.164-0.463-0.184-0.748h-0.369l0.055,2.044h0.498L156.227,96.918z M142.508,90.946l0.689-0.024l-0.211,5.138  c-0.006,0.119-0.016,0.23-0.028,0.336c-0.013,0.104-0.042,0.196-0.087,0.275c-0.045,0.08-0.109,0.145-0.193,0.193  c-0.086,0.048-0.203,0.074-0.353,0.077v0.313h1.833v-0.417l-0.723,0.038c0.017-0.119,0.025-0.249,0.028-0.39  s0.007-0.283,0.009-0.427c0.004-0.217,0.008-0.443,0.015-0.683s0.013-0.482,0.019-0.729s0.014-0.493,0.02-0.737  s0.013-0.478,0.021-0.703c0.009-0.226,0.015-0.437,0.019-0.636c0.006-0.199,0.011-0.375,0.017-0.528l0.011-0.422  c0.187,0.497,0.381,0.987,0.582,1.469c0.202,0.483,0.406,0.963,0.614,1.438s0.418,0.947,0.631,1.416  c0.212,0.468,0.423,0.937,0.634,1.406h0.284l2.161-5.334c0.021-0.058,0.044-0.111,0.066-0.162c0.021-0.053,0.041-0.102,0.061-0.148  l0.248,4.096c0.01,0.182,0.01,0.343,0,0.481c-0.009,0.139-0.036,0.257-0.082,0.354c-0.045,0.097-0.111,0.171-0.199,0.223  c-0.087,0.052-0.205,0.079-0.355,0.082v0.313h2.15v-0.417l-0.697,0.033c0-0.085-0.002-0.178-0.006-0.279  c-0.002-0.102-0.006-0.209-0.014-0.321l-0.253-4.372c-0.012-0.197-0.007-0.363,0.017-0.497c0.023-0.135,0.063-0.242,0.119-0.324  c0.057-0.081,0.129-0.14,0.217-0.176c0.086-0.036,0.191-0.052,0.313-0.049v-0.319h-1.421c-0.296,0.757-0.598,1.489-0.902,2.199  c-0.305,0.709-0.596,1.414-0.873,2.114c-0.035,0.087-0.074,0.184-0.115,0.29c-0.043,0.106-0.086,0.216-0.129,0.328  c-0.045,0.112-0.088,0.222-0.129,0.328c-0.043,0.106-0.082,0.203-0.119,0.29h-0.02c-0.203-0.465-0.4-0.922-0.593-1.371  c-0.192-0.447-0.386-0.897-0.579-1.35c-0.193-0.451-0.391-0.91-0.594-1.376c-0.2-0.465-0.412-0.95-0.635-1.453h-1.467V90.946z   M137.454,91.752h0.019l0.432,1.182l0.684,1.838h-2.222c0.088-0.247,0.187-0.528,0.298-0.842c0.111-0.314,0.24-0.678,0.387-1.09  L137.454,91.752z M136.038,95.727c0.054-0.164,0.114-0.346,0.183-0.543l2.5-0.057l0.336,0.902c0.035,0.091,0.062,0.188,0.084,0.292  c0.022,0.103,0.022,0.2,0,0.291c-0.021,0.091-0.074,0.168-0.158,0.229c-0.084,0.063-0.217,0.097-0.395,0.1v0.313h2.199v-0.417  l-0.657,0.038c0.005-0.071-0.002-0.154-0.016-0.249c-0.015-0.094-0.034-0.188-0.062-0.286c-0.025-0.097-0.055-0.191-0.084-0.283  c-0.029-0.093-0.059-0.171-0.086-0.237l-2.143-5.47h-0.23l-1.978,5.39c-0.065,0.179-0.124,0.341-0.177,0.488  c-0.051,0.146-0.107,0.273-0.17,0.38c-0.062,0.105-0.14,0.188-0.23,0.246c-0.09,0.058-0.207,0.087-0.352,0.087v0.313h1.795v-0.417  l-0.75,0.038c0.022-0.054,0.043-0.104,0.062-0.15s0.038-0.096,0.056-0.146c0.02-0.05,0.039-0.104,0.058-0.164  s0.04-0.127,0.065-0.202C135.936,96.054,135.984,95.892,136.038,95.727 M120.726,90.96l0.544-0.023  c0.012,0.071,0.029,0.149,0.051,0.231c0.022,0.083,0.05,0.177,0.082,0.279c0.033,0.104,0.072,0.22,0.118,0.35  c0.045,0.129,0.666,1.98,1.864,5.553h0.275l1.693-5.134l1.795,5.134h0.285c0.304-0.828,0.692-1.955,1.168-3.38  c0.475-1.426,0.75-2.227,0.826-2.404c0.077-0.179,0.157-0.318,0.239-0.418c0.083-0.101,0.179-0.169,0.284-0.208  s0.24-0.068,0.402-0.087v-0.319h-1.949v0.427l0.769-0.032c-0.063,0.108-0.118,0.227-0.165,0.354  c-0.05,0.127-0.148,0.42-0.297,0.881s-0.554,1.695-1.216,3.701h-0.024c-0.09-0.303-0.285-0.905-0.588-1.805  c-0.302-0.9-0.492-1.469-0.574-1.706c-0.08-0.237-0.277-0.851-0.59-1.837h-0.31c-0.253,0.803-0.418,1.321-0.495,1.558  c-0.076,0.236-0.156,0.485-0.243,0.748c-0.086,0.262-0.218,0.67-0.396,1.223c-0.18,0.554-0.286,0.889-0.322,1.003  c-0.036,0.116-0.072,0.235-0.109,0.357c-0.037,0.121-0.072,0.236-0.104,0.342h-0.02c-0.047-0.149-0.093-0.292-0.14-0.424  c-0.047-0.133-0.206-0.591-0.476-1.374c-0.271-0.783-0.496-1.466-0.673-2.051c-0.053-0.19-0.085-0.351-0.096-0.48  c-0.011-0.13,0.006-0.234,0.049-0.316c0.044-0.081,0.12-0.141,0.228-0.179c0.108-0.036,0.255-0.061,0.443-0.069v-0.319h-2.331  V90.96z M112.984,94.736c0.056,0.283,0.143,0.554,0.26,0.812c0.117,0.26,0.267,0.502,0.45,0.729  c0.183,0.226,0.401,0.423,0.654,0.59c0.253,0.168,0.543,0.3,0.869,0.397c0.327,0.096,0.693,0.145,1.1,0.145  c0.378,0,0.722-0.05,1.033-0.149c0.311-0.101,0.591-0.236,0.839-0.408c0.249-0.172,0.465-0.373,0.649-0.603  c0.185-0.229,0.337-0.475,0.457-0.735c0.121-0.262,0.211-0.53,0.272-0.807s0.092-0.548,0.092-0.813s-0.031-0.537-0.092-0.815  s-0.153-0.548-0.276-0.809c-0.124-0.262-0.278-0.506-0.464-0.736c-0.186-0.229-0.406-0.43-0.659-0.6s-0.54-0.306-0.86-0.405  s-0.676-0.15-1.066-0.15c-0.379,0-0.724,0.05-1.036,0.147c-0.313,0.099-0.593,0.234-0.839,0.406  c-0.247,0.172-0.463,0.372-0.647,0.6c-0.185,0.229-0.338,0.472-0.46,0.733c-0.122,0.261-0.212,0.53-0.272,0.809  c-0.059,0.278-0.089,0.552-0.089,0.82C112.899,94.172,112.927,94.453,112.984,94.736 M113.989,92.656  c0.099-0.352,0.246-0.669,0.443-0.95c0.197-0.282,0.444-0.51,0.741-0.685c0.297-0.175,0.642-0.264,1.036-0.264  c0.265,0,0.511,0.047,0.738,0.137c0.227,0.091,0.432,0.215,0.616,0.373c0.185,0.157,0.347,0.344,0.488,0.559  c0.141,0.214,0.259,0.444,0.356,0.689c0.097,0.246,0.17,0.509,0.22,0.791c0.05,0.28,0.075,0.536,0.075,0.769  c0,0.216-0.022,0.447-0.067,0.694c-0.046,0.247-0.112,0.479-0.2,0.696c-0.087,0.218-0.197,0.421-0.328,0.61  c-0.131,0.189-0.284,0.354-0.459,0.492c-0.175,0.139-0.372,0.249-0.591,0.329c-0.219,0.079-0.459,0.119-0.722,0.119  c-0.287,0-0.547-0.049-0.78-0.146s-0.442-0.228-0.628-0.392s-0.347-0.357-0.483-0.577c-0.136-0.22-0.249-0.453-0.338-0.697  c-0.089-0.243-0.155-0.493-0.199-0.748s-0.065-0.501-0.065-0.739C113.842,93.362,113.891,93.008,113.989,92.656 M107.973,92.03  c0-0.172,0-0.329,0.002-0.47s0.021-0.263,0.059-0.365c0.037-0.104,0.101-0.187,0.192-0.247c0.09-0.061,0.226-0.094,0.408-0.101  v-0.314h-2.161v0.422l0.693-0.042c-0.012,0.098-0.021,0.204-0.025,0.321c-0.005,0.118-0.007,0.242-0.007,0.373v4.151  c0,0.17-0.001,0.324-0.003,0.468c-0.001,0.142-0.021,0.265-0.058,0.368c-0.038,0.103-0.102,0.185-0.193,0.243  c-0.09,0.06-0.226,0.093-0.407,0.099v0.318h4.762l0.056-1.986h-0.323c0,0.284-0.027,0.526-0.08,0.729  c-0.053,0.201-0.131,0.366-0.234,0.494s-0.232,0.223-0.387,0.284c-0.155,0.061-0.332,0.093-0.532,0.096l-1.795,0.028  c0.012-0.081,0.021-0.184,0.026-0.305c0.004-0.122,0.007-0.271,0.007-0.446V92.03z M101.125,93.95  c0.516-0.021,0.797-0.032,0.844-0.032h0.136c0.153,0,0.284,0.01,0.391,0.028c0.108,0.019,0.197,0.058,0.268,0.119  c0.07,0.061,0.121,0.146,0.154,0.258c0.033,0.111,0.049,0.26,0.049,0.448h0.315v-2.021h-0.427l0.07,0.829h-1.8v-1.547  c0-0.197,0.004-0.365,0.012-0.506c0.008-0.141,0.035-0.257,0.082-0.349c0.047-0.093,0.12-0.162,0.218-0.209  c0.098-0.048,0.237-0.075,0.415-0.084l0.886-0.015c0.175,0,0.337,0.019,0.487,0.054c0.15,0.036,0.281,0.104,0.392,0.204  c0.111,0.101,0.198,0.237,0.262,0.412s0.096,0.4,0.096,0.675h0.314l-0.047-1.683h-4.617v0.422l0.694-0.042  c-0.013,0.098-0.021,0.204-0.026,0.321c-0.004,0.118-0.007,0.242-0.007,0.373v4.151v0.281c0,0.132-0.005,0.251-0.016,0.359  c-0.011,0.107-0.039,0.201-0.082,0.279c-0.044,0.078-0.11,0.14-0.199,0.186c-0.09,0.045-0.211,0.069-0.364,0.072v0.318h4.955  l0.056-1.869h-0.328c0,0.283-0.033,0.521-0.098,0.71c-0.066,0.188-0.159,0.341-0.279,0.454c-0.121,0.114-0.265,0.195-0.434,0.243  c-0.169,0.049-0.358,0.075-0.567,0.078l-1.838,0.028c0.013-0.081,0.022-0.183,0.026-0.302c0.005-0.121,0.007-0.271,0.007-0.448  V93.95z M97.404,95.441c0-0.044,0.001-0.103,0.003-0.176c0.001-0.073,0.008-0.152,0.019-0.236c0.01-0.085,0.029-0.17,0.056-0.256  c0.026-0.086,0.065-0.164,0.115-0.234c0.05-0.071,0.115-0.128,0.196-0.174c0.082-0.045,0.182-0.068,0.3-0.068v-0.313h-2.17v0.422  l0.675-0.037v2.1c-0.125,0.085-0.257,0.157-0.396,0.219c-0.139,0.061-0.28,0.109-0.422,0.146c-0.142,0.038-0.283,0.066-0.424,0.085  c-0.141,0.019-0.275,0.028-0.403,0.028c-0.378,0-0.725-0.078-1.041-0.235c-0.315-0.155-0.587-0.373-0.813-0.648  c-0.227-0.277-0.402-0.607-0.527-0.99s-0.188-0.802-0.188-1.255c0-0.447,0.065-0.858,0.195-1.232  c0.129-0.373,0.305-0.694,0.527-0.966c0.222-0.27,0.483-0.48,0.783-0.633c0.3-0.152,0.62-0.229,0.961-0.229  c0.278,0,0.538,0.043,0.78,0.128c0.242,0.085,0.455,0.206,0.638,0.366s0.33,0.357,0.443,0.593c0.112,0.234,0.179,0.503,0.201,0.803  h0.347v-2.198h-0.53l0.043,0.459c-0.135-0.081-0.282-0.154-0.441-0.22c-0.159-0.066-0.325-0.121-0.497-0.166  c-0.172-0.046-0.347-0.081-0.525-0.106c-0.178-0.024-0.353-0.037-0.525-0.037c-0.372,0-0.713,0.049-1.024,0.146  s-0.591,0.23-0.839,0.403c-0.249,0.172-0.465,0.373-0.649,0.606c-0.185,0.233-0.339,0.485-0.462,0.755  c-0.124,0.271-0.216,0.556-0.277,0.854s-0.091,0.598-0.091,0.897c0,0.525,0.08,0.996,0.239,1.413s0.383,0.771,0.67,1.06  c0.288,0.288,0.631,0.511,1.032,0.666c0.4,0.154,0.84,0.231,1.321,0.231c0.107,0,0.221-0.006,0.343-0.019  c0.121-0.013,0.244-0.03,0.368-0.052c0.123-0.021,0.244-0.049,0.363-0.079c0.119-0.031,0.228-0.066,0.328-0.104  c0.234-0.091,0.439-0.155,0.614-0.192c0.175-0.037,0.316-0.057,0.422-0.057h0.262V95.441z M86.227,92.033  c0-0.172,0.001-0.328,0.003-0.468c0.001-0.142,0.021-0.261,0.058-0.361c0.038-0.1,0.102-0.178,0.193-0.231  c0.09-0.056,0.226-0.082,0.407-0.082c0.591,0,1.025,0.122,1.301,0.367c0.277,0.245,0.415,0.608,0.415,1.09  c0,0.278-0.044,0.514-0.131,0.706c-0.088,0.191-0.21,0.349-0.368,0.471c-0.158,0.122-0.346,0.212-0.563,0.269  c-0.217,0.059-0.457,0.093-0.719,0.102c-0.113,0.007-0.215,0.007-0.307,0.003c-0.093-0.005-0.189-0.011-0.289-0.018V92.033z   M87.066,94.464c0.06,0.076,0.116,0.155,0.169,0.236c0.053,0.082,0.103,0.162,0.15,0.242c0.047,0.08,0.092,0.154,0.136,0.223  l0.642,1.026c0.069,0.105,0.135,0.206,0.197,0.298c0.063,0.092,0.128,0.182,0.195,0.269c0.067,0.089,0.138,0.173,0.213,0.254  s0.159,0.162,0.253,0.243h1.21v-0.313c-0.15,0-0.281-0.023-0.392-0.07c-0.111-0.047-0.211-0.11-0.3-0.192  c-0.089-0.081-0.171-0.178-0.246-0.289c-0.075-0.111-0.153-0.23-0.234-0.359l-0.657-1.028c-0.118-0.188-0.228-0.352-0.328-0.493  c-0.1-0.141-0.212-0.257-0.337-0.348c0.365-0.075,0.665-0.181,0.897-0.318c0.233-0.138,0.417-0.294,0.551-0.469  c0.135-0.175,0.227-0.359,0.277-0.556c0.05-0.195,0.075-0.386,0.075-0.574c0-0.265-0.049-0.503-0.148-0.712  c-0.098-0.21-0.253-0.388-0.464-0.535c-0.211-0.146-0.481-0.26-0.811-0.339c-0.33-0.08-0.726-0.125-1.188-0.134  c-0.372-0.006-0.741-0.008-1.106-0.005c-0.366,0.003-0.73,0.008-1.093,0.014v0.427l0.694-0.042  c-0.012,0.098-0.021,0.204-0.026,0.321c-0.004,0.117-0.007,0.242-0.007,0.373v4.152c0,0.169,0,0.323-0.002,0.466  s-0.021,0.266-0.059,0.369c-0.037,0.103-0.101,0.184-0.192,0.243c-0.09,0.06-0.226,0.093-0.408,0.099v0.313h2.161v-0.417  l-0.693,0.038c0.012-0.082,0.021-0.185,0.025-0.31c0.005-0.126,0.007-0.276,0.007-0.451v-1.869c0.11,0.009,0.219,0.016,0.329,0.017  c0.109,0.002,0.217-0.001,0.323-0.008C86.945,94.318,87.007,94.388,87.066,94.464 M76.349,94.736  c0.056,0.283,0.143,0.554,0.26,0.812c0.117,0.26,0.268,0.502,0.45,0.729c0.183,0.226,0.401,0.423,0.654,0.59  c0.253,0.168,0.543,0.3,0.87,0.397c0.326,0.096,0.693,0.145,1.099,0.145c0.378,0,0.723-0.05,1.034-0.149  c0.31-0.101,0.59-0.236,0.839-0.408c0.248-0.172,0.464-0.373,0.649-0.603c0.184-0.229,0.337-0.475,0.457-0.735  c0.12-0.262,0.211-0.53,0.272-0.807s0.091-0.548,0.091-0.813s-0.03-0.537-0.091-0.815s-0.153-0.548-0.277-0.809  c-0.123-0.262-0.278-0.506-0.464-0.736c-0.186-0.229-0.405-0.43-0.658-0.6c-0.254-0.17-0.54-0.306-0.861-0.405  c-0.32-0.1-0.675-0.15-1.066-0.15c-0.378,0-0.724,0.05-1.036,0.147c-0.312,0.099-0.592,0.234-0.839,0.406s-0.463,0.372-0.647,0.6  c-0.184,0.229-0.337,0.472-0.459,0.733c-0.122,0.261-0.213,0.53-0.272,0.809c-0.06,0.278-0.089,0.552-0.089,0.82  C76.265,94.172,76.293,94.453,76.349,94.736 M77.355,92.656c0.098-0.352,0.246-0.669,0.443-0.95c0.196-0.282,0.443-0.51,0.74-0.685  s0.642-0.264,1.036-0.264c0.266,0,0.512,0.047,0.738,0.137c0.227,0.091,0.432,0.215,0.617,0.373  c0.184,0.157,0.347,0.344,0.487,0.559c0.141,0.214,0.26,0.444,0.357,0.689c0.096,0.246,0.17,0.509,0.22,0.791  c0.05,0.28,0.075,0.536,0.075,0.769c0,0.216-0.023,0.447-0.068,0.694s-0.112,0.479-0.199,0.696  c-0.088,0.218-0.197,0.421-0.328,0.61c-0.132,0.189-0.285,0.354-0.46,0.492c-0.175,0.139-0.372,0.249-0.59,0.329  c-0.219,0.079-0.46,0.119-0.722,0.119c-0.288,0-0.548-0.049-0.781-0.146c-0.233-0.097-0.442-0.228-0.628-0.392  s-0.347-0.357-0.483-0.577s-0.248-0.453-0.337-0.697c-0.089-0.243-0.156-0.493-0.199-0.748c-0.044-0.255-0.066-0.501-0.066-0.739  C77.207,93.362,77.256,93.008,77.355,92.656 M74.643,92.563l-0.056-2.03H68.99l-0.056,2.03h0.356c0-0.284,0.019-0.53,0.058-0.738  c0.04-0.208,0.103-0.381,0.19-0.518c0.088-0.139,0.201-0.24,0.34-0.308c0.139-0.066,0.31-0.101,0.513-0.101l0.994-0.005  l-0.014,4.87v0.455c0,0.141-0.019,0.263-0.056,0.367c-0.038,0.105-0.102,0.188-0.192,0.251c-0.091,0.062-0.225,0.098-0.403,0.104  v0.313h2.254v-0.417l-0.797,0.038c0.019-0.163,0.028-0.416,0.028-0.76l0.015-5.23l0.81-0.006c0.247,0,0.45,0.035,0.61,0.104  c0.159,0.069,0.286,0.173,0.38,0.312c0.093,0.14,0.159,0.314,0.196,0.525c0.038,0.211,0.06,0.459,0.066,0.743H74.643z"></path>	<path fill="#29418F" d="M205.519,77.746l0.689-0.023l-0.212,5.137c-0.006,0.119-0.014,0.231-0.027,0.336  c-0.012,0.104-0.041,0.197-0.087,0.276c-0.045,0.08-0.11,0.144-0.194,0.192c-0.084,0.048-0.201,0.074-0.352,0.077v0.314h1.833  v-0.417l-0.722,0.037c0.016-0.118,0.024-0.248,0.027-0.39c0.004-0.141,0.008-0.283,0.01-0.427c0.004-0.216,0.008-0.443,0.015-0.683  c0.006-0.239,0.012-0.482,0.019-0.729c0.006-0.247,0.012-0.493,0.018-0.737c0.008-0.243,0.015-0.478,0.021-0.703  c0.008-0.226,0.016-0.438,0.02-0.636c0.004-0.199,0.01-0.375,0.017-0.527l0.009-0.423c0.188,0.497,0.383,0.986,0.584,1.47  c0.201,0.482,0.406,0.962,0.614,1.437c0.207,0.476,0.418,0.947,0.63,1.416c0.213,0.468,0.424,0.938,0.633,1.406h0.286l2.161-5.335  c0.021-0.056,0.044-0.11,0.064-0.161c0.022-0.052,0.043-0.101,0.062-0.148l0.249,4.097c0.009,0.181,0.009,0.342,0,0.48  c-0.01,0.14-0.037,0.258-0.082,0.354c-0.046,0.097-0.111,0.171-0.199,0.223s-0.207,0.079-0.357,0.082v0.314h2.152v-0.417  l-0.699,0.032c0-0.085,0-0.178-0.004-0.278c-0.002-0.103-0.008-0.209-0.014-0.322l-0.253-4.372  c-0.013-0.197-0.007-0.363,0.017-0.497c0.022-0.135,0.062-0.243,0.119-0.324s0.129-0.14,0.215-0.176  c0.088-0.036,0.192-0.052,0.314-0.049v-0.319h-1.42c-0.297,0.757-0.598,1.489-0.902,2.199c-0.305,0.709-0.597,1.414-0.875,2.114  c-0.033,0.087-0.072,0.184-0.115,0.29c-0.041,0.106-0.084,0.216-0.127,0.328c-0.045,0.112-0.088,0.222-0.129,0.329  c-0.043,0.105-0.082,0.202-0.121,0.29h-0.019c-0.203-0.466-0.399-0.923-0.593-1.371c-0.192-0.448-0.385-0.898-0.579-1.351  c-0.192-0.451-0.392-0.91-0.593-1.376c-0.201-0.465-0.413-0.95-0.635-1.453h-1.468V77.746z M203.025,78.829  c0-0.172,0-0.328,0.002-0.469c0.002-0.14,0.021-0.262,0.059-0.366c0.038-0.103,0.102-0.185,0.195-0.246  c0.092-0.061,0.228-0.094,0.41-0.101v-0.314h-1.787v0.422l0.689-0.042c-0.02,0.194-0.027,0.426-0.027,0.694l-0.039,2.698  c-0.006,0.375-0.047,0.719-0.123,1.032c-0.078,0.312-0.195,0.582-0.356,0.809c-0.161,0.228-0.366,0.403-0.614,0.528  c-0.249,0.125-0.546,0.187-0.893,0.187c-0.288,0-0.536-0.036-0.746-0.109c-0.209-0.073-0.387-0.177-0.534-0.308  c-0.147-0.132-0.267-0.286-0.358-0.465c-0.093-0.178-0.164-0.372-0.215-0.581c-0.053-0.21-0.088-0.431-0.107-0.664  c-0.018-0.232-0.027-0.468-0.027-0.706v-2.421c0-0.064,0.004-0.142,0.012-0.229c0.008-0.087,0.033-0.17,0.075-0.248  s0.108-0.146,0.197-0.2c0.089-0.054,0.215-0.082,0.377-0.082v-0.314h-2.156v0.408l0.688-0.028c-0.006,0.062-0.01,0.141-0.014,0.232  c-0.002,0.092-0.007,0.19-0.012,0.293c-0.004,0.104-0.008,0.207-0.009,0.311c-0.002,0.103-0.002,0.196-0.002,0.28v1.952  c0,0.594,0.045,1.107,0.135,1.538c0.091,0.432,0.242,0.788,0.453,1.067s0.489,0.487,0.837,0.622  c0.346,0.134,0.775,0.201,1.289,0.201c0.48,0,0.886-0.086,1.214-0.258s0.593-0.402,0.794-0.691  c0.202-0.289,0.348-0.624,0.436-1.004c0.09-0.381,0.136-0.779,0.139-1.199L203.025,78.829z M193.765,82.563  c0,0.169-0.001,0.324-0.002,0.467c-0.002,0.142-0.021,0.265-0.06,0.368c-0.036,0.104-0.101,0.185-0.191,0.244  s-0.227,0.093-0.408,0.099v0.314h2.161v-0.417l-0.694,0.037c0.014-0.081,0.021-0.185,0.026-0.311  c0.005-0.125,0.007-0.274,0.007-0.45V78.83c0-0.172,0.002-0.328,0.004-0.469c0-0.141,0.021-0.263,0.058-0.366  c0.038-0.104,0.102-0.186,0.192-0.247c0.09-0.061,0.227-0.094,0.407-0.101v-0.314h-2.161v0.422l0.694-0.042  c-0.013,0.098-0.021,0.204-0.026,0.321c-0.005,0.118-0.007,0.242-0.007,0.374V82.563z M187.382,83.719  c0.119,0.081,0.248,0.152,0.387,0.215c0.14,0.062,0.283,0.113,0.431,0.154c0.149,0.04,0.3,0.071,0.451,0.092s0.299,0.03,0.442,0.03  c0.356,0,0.674-0.046,0.954-0.136c0.279-0.091,0.516-0.217,0.706-0.378c0.19-0.16,0.336-0.353,0.437-0.576  c0.1-0.224,0.149-0.468,0.149-0.733c0-0.284-0.054-0.531-0.157-0.74c-0.105-0.21-0.242-0.394-0.415-0.551  c-0.172-0.158-0.368-0.297-0.586-0.417c-0.219-0.121-0.442-0.233-0.671-0.338s-0.451-0.208-0.67-0.312  c-0.219-0.103-0.414-0.217-0.586-0.343c-0.172-0.125-0.311-0.269-0.415-0.429c-0.104-0.162-0.157-0.353-0.157-0.571  c0-0.15,0.027-0.293,0.08-0.431c0.053-0.136,0.131-0.255,0.234-0.358c0.103-0.104,0.231-0.186,0.385-0.246  c0.152-0.061,0.329-0.092,0.529-0.092c0.281,0,0.524,0.051,0.731,0.152c0.206,0.103,0.38,0.237,0.521,0.404  c0.141,0.168,0.248,0.36,0.32,0.578c0.073,0.218,0.118,0.443,0.135,0.675h0.347v-2.104h-0.488l0.038,0.412  c-0.132-0.097-0.27-0.178-0.413-0.241c-0.144-0.064-0.288-0.115-0.434-0.152c-0.146-0.038-0.288-0.063-0.429-0.08  c-0.141-0.016-0.273-0.023-0.398-0.023c-0.26,0-0.487,0.026-0.684,0.08c-0.197,0.053-0.367,0.124-0.512,0.213  c-0.144,0.089-0.263,0.192-0.359,0.31c-0.094,0.117-0.172,0.238-0.229,0.363c-0.058,0.125-0.1,0.25-0.125,0.375  s-0.037,0.242-0.037,0.352c0,0.284,0.051,0.529,0.154,0.736c0.104,0.206,0.24,0.386,0.411,0.541  c0.17,0.155,0.364,0.291,0.581,0.408s0.438,0.228,0.662,0.333c0.226,0.104,0.447,0.209,0.664,0.313  c0.218,0.104,0.41,0.223,0.582,0.352c0.17,0.13,0.307,0.278,0.41,0.447c0.103,0.169,0.154,0.37,0.154,0.605  c0,0.193-0.037,0.365-0.111,0.515c-0.072,0.15-0.172,0.276-0.3,0.378c-0.126,0.102-0.272,0.179-0.44,0.229  c-0.166,0.052-0.344,0.078-0.531,0.078c-0.253,0-0.491-0.037-0.713-0.111c-0.223-0.073-0.416-0.182-0.583-0.325  c-0.168-0.144-0.304-0.322-0.406-0.537c-0.103-0.214-0.164-0.463-0.183-0.748h-0.37l0.056,2.044h0.497L187.382,83.719z   M181.961,78.553h0.02l0.43,1.181l0.686,1.838h-2.222c0.087-0.247,0.186-0.528,0.297-0.842c0.11-0.314,0.239-0.677,0.387-1.09  L181.961,78.553z M180.546,82.526c0.053-0.164,0.114-0.345,0.182-0.543l2.499-0.056l0.338,0.901  c0.034,0.091,0.062,0.188,0.084,0.292c0.022,0.104,0.022,0.2,0,0.291c-0.021,0.091-0.074,0.168-0.16,0.23  c-0.084,0.062-0.215,0.096-0.393,0.099v0.314h2.198v-0.417l-0.656,0.037c0.003-0.072-0.003-0.154-0.017-0.248  c-0.014-0.095-0.034-0.189-0.062-0.286c-0.026-0.098-0.054-0.192-0.084-0.284s-0.059-0.171-0.087-0.237l-2.143-5.47h-0.229  l-1.978,5.39c-0.065,0.179-0.124,0.342-0.176,0.488c-0.051,0.147-0.108,0.274-0.172,0.38c-0.062,0.106-0.139,0.188-0.229,0.246  c-0.092,0.058-0.208,0.087-0.352,0.087v0.314h1.795v-0.417l-0.75,0.037c0.021-0.054,0.043-0.104,0.061-0.15  c0.02-0.047,0.038-0.096,0.057-0.146c0.019-0.05,0.037-0.104,0.057-0.163c0.019-0.061,0.041-0.128,0.066-0.202  C180.441,82.854,180.492,82.691,180.546,82.526 M177.242,78.829c0-0.172,0-0.328-0.002-0.469c-0.002-0.14,0.016-0.262,0.052-0.366  c0.036-0.103,0.099-0.185,0.188-0.246c0.088-0.061,0.223-0.094,0.404-0.101v-0.314h-1.768v0.422l0.689-0.042  c-0.02,0.194-0.027,0.426-0.027,0.694l-0.01,4.396h-0.01l-4.087-5.471h-1.144v0.422l0.642-0.042l-0.009,5.272  c0,0.075-0.006,0.157-0.018,0.244c-0.011,0.088-0.037,0.169-0.078,0.244c-0.043,0.076-0.106,0.139-0.19,0.19  c-0.085,0.052-0.2,0.077-0.347,0.077v0.314h1.758v-0.417l-0.694,0.037c0.009-0.153,0.015-0.31,0.017-0.468  c0.002-0.156,0.002-0.318,0.002-0.484l-0.033-4.115h0.015l4.167,5.602h0.464L177.242,78.829z M161.834,77.746l0.689-0.023  l-0.211,5.137c-0.007,0.119-0.017,0.231-0.029,0.336c-0.012,0.104-0.041,0.197-0.086,0.276c-0.045,0.08-0.11,0.144-0.194,0.192  c-0.085,0.048-0.202,0.074-0.353,0.077v0.314h1.834v-0.417l-0.723,0.037c0.016-0.118,0.025-0.248,0.028-0.39  c0.003-0.141,0.006-0.283,0.009-0.427c0.004-0.216,0.008-0.443,0.014-0.683c0.008-0.239,0.014-0.482,0.02-0.729  s0.013-0.493,0.019-0.737c0.007-0.243,0.013-0.478,0.021-0.703c0.009-0.226,0.015-0.438,0.02-0.636  c0.006-0.199,0.01-0.375,0.016-0.527l0.011-0.423c0.187,0.497,0.382,0.986,0.583,1.47c0.201,0.482,0.406,0.962,0.613,1.437  c0.209,0.476,0.418,0.947,0.631,1.416c0.213,0.468,0.424,0.938,0.634,1.406h0.284l2.162-5.335c0.021-0.056,0.043-0.11,0.065-0.161  c0.022-0.052,0.042-0.101,0.062-0.148l0.248,4.097c0.01,0.181,0.01,0.342,0,0.48c-0.01,0.14-0.037,0.258-0.082,0.354  s-0.111,0.171-0.199,0.223s-0.206,0.079-0.355,0.082v0.314h2.15v-0.417l-0.698,0.032c0-0.085-0.002-0.178-0.005-0.278  c-0.003-0.103-0.007-0.209-0.014-0.322l-0.254-4.372c-0.012-0.197-0.006-0.363,0.018-0.497c0.023-0.135,0.062-0.243,0.119-0.324  c0.056-0.081,0.128-0.14,0.216-0.176c0.087-0.036,0.192-0.052,0.313-0.049v-0.319h-1.42c-0.297,0.757-0.598,1.489-0.902,2.199  c-0.305,0.709-0.596,1.414-0.874,2.114c-0.034,0.087-0.073,0.184-0.115,0.29s-0.085,0.216-0.129,0.328s-0.087,0.222-0.129,0.329  c-0.042,0.105-0.082,0.202-0.119,0.29h-0.019c-0.203-0.466-0.401-0.923-0.594-1.371c-0.191-0.448-0.385-0.898-0.578-1.351  c-0.194-0.451-0.392-0.91-0.594-1.376c-0.201-0.465-0.412-0.95-0.635-1.453h-1.467V77.746z M156.732,82.563v0.456  c0,0.14-0.02,0.263-0.058,0.368c-0.037,0.104-0.101,0.188-0.192,0.251c-0.09,0.062-0.225,0.097-0.402,0.103v0.314h2.255v-0.417  l-0.798,0.037c0.02-0.162,0.029-0.416,0.029-0.761c-0.004,0-0.004-0.212-0.002-0.635c0-0.424,0.004-0.791,0.006-1.1  c0.918-1.73,1.43-2.67,1.53-2.822c0.103-0.152,0.207-0.278,0.317-0.38c0.109-0.103,0.226-0.179,0.351-0.232  c0.125-0.053,0.267-0.085,0.427-0.094v-0.319h-1.959v0.428l0.76-0.033c-0.047,0.05-0.092,0.107-0.137,0.173  c-0.043,0.066-0.135,0.224-0.271,0.474c-0.139,0.25-0.564,1.057-1.28,2.419h-0.019c-0.137-0.19-0.264-0.372-0.377-0.544  c-0.114-0.172-0.225-0.341-0.33-0.506c-0.107-0.166-0.213-0.334-0.319-0.504c-0.106-0.171-0.219-0.351-0.338-0.542  c-0.097-0.153-0.166-0.293-0.208-0.422c-0.042-0.128-0.047-0.238-0.014-0.33s0.106-0.164,0.222-0.216  c0.116-0.051,0.285-0.077,0.507-0.077v-0.319h-2.475v0.428l0.595-0.024c0.024,0.122,0.076,0.271,0.155,0.444  c0.078,0.173,0.199,0.388,0.365,0.645l1.664,2.642L156.732,82.563z M152.232,82.241c0-0.044,0.002-0.102,0.004-0.176  c0-0.073,0.008-0.152,0.019-0.237c0.01-0.084,0.028-0.169,0.056-0.255c0.026-0.086,0.065-0.164,0.115-0.233  c0.05-0.071,0.115-0.129,0.195-0.175c0.082-0.045,0.183-0.067,0.301-0.067v-0.314h-2.17v0.422l0.675-0.037v2.101  c-0.125,0.084-0.257,0.157-0.396,0.218c-0.14,0.06-0.28,0.11-0.422,0.147c-0.143,0.037-0.283,0.065-0.425,0.085  c-0.141,0.018-0.274,0.027-0.403,0.027c-0.377,0-0.725-0.078-1.041-0.234c-0.314-0.156-0.586-0.373-0.812-0.65  c-0.227-0.276-0.402-0.606-0.527-0.989s-0.188-0.802-0.188-1.255c0-0.447,0.064-0.857,0.195-1.231  c0.129-0.373,0.305-0.695,0.526-0.967c0.222-0.271,0.483-0.481,0.783-0.633s0.62-0.228,0.961-0.228c0.278,0,0.538,0.042,0.78,0.127  s0.455,0.207,0.638,0.367c0.183,0.158,0.33,0.356,0.443,0.592c0.112,0.234,0.179,0.502,0.2,0.803h0.348v-2.198h-0.53l0.043,0.459  c-0.135-0.081-0.282-0.154-0.44-0.22c-0.159-0.066-0.325-0.121-0.498-0.167c-0.172-0.045-0.346-0.08-0.524-0.104  c-0.178-0.025-0.353-0.038-0.524-0.038c-0.373,0-0.713,0.049-1.024,0.146s-0.591,0.231-0.839,0.403  c-0.249,0.172-0.465,0.374-0.649,0.606c-0.185,0.233-0.339,0.484-0.462,0.756c-0.124,0.27-0.216,0.554-0.277,0.853  c-0.061,0.298-0.09,0.597-0.09,0.897c0,0.524,0.079,0.996,0.238,1.413s0.383,0.771,0.67,1.06c0.288,0.289,0.633,0.511,1.032,0.666  c0.399,0.154,0.84,0.231,1.321,0.231c0.106,0,0.221-0.007,0.343-0.019c0.12-0.013,0.243-0.03,0.368-0.052  c0.123-0.021,0.244-0.048,0.363-0.079c0.118-0.031,0.228-0.066,0.327-0.104c0.234-0.091,0.439-0.154,0.614-0.192  c0.175-0.037,0.316-0.057,0.422-0.057h0.262V82.241z M140.527,83.719c0.119,0.081,0.248,0.152,0.387,0.215s0.281,0.113,0.431,0.154  c0.147,0.04,0.298,0.071,0.45,0.092c0.15,0.021,0.299,0.03,0.443,0.03c0.355,0,0.674-0.046,0.953-0.136  c0.279-0.091,0.516-0.217,0.705-0.378c0.191-0.16,0.336-0.353,0.437-0.576c0.1-0.224,0.149-0.468,0.149-0.733  c0-0.284-0.052-0.531-0.156-0.74c-0.105-0.21-0.243-0.394-0.416-0.551c-0.172-0.158-0.366-0.297-0.586-0.417  c-0.217-0.121-0.441-0.233-0.67-0.338c-0.228-0.104-0.451-0.208-0.67-0.312c-0.219-0.103-0.414-0.217-0.586-0.343  c-0.172-0.125-0.31-0.269-0.414-0.429c-0.105-0.162-0.158-0.353-0.158-0.571c0-0.15,0.027-0.293,0.08-0.431  c0.054-0.136,0.131-0.255,0.234-0.358s0.23-0.186,0.385-0.246c0.152-0.061,0.33-0.092,0.529-0.092c0.281,0,0.525,0.051,0.73,0.152  c0.207,0.103,0.381,0.237,0.521,0.404c0.141,0.168,0.247,0.36,0.321,0.578c0.073,0.218,0.118,0.443,0.133,0.675h0.347v-2.104  h-0.486l0.037,0.412c-0.131-0.097-0.27-0.178-0.412-0.241c-0.145-0.064-0.289-0.115-0.434-0.152  c-0.146-0.038-0.289-0.063-0.43-0.08c-0.141-0.016-0.273-0.023-0.398-0.023c-0.26,0-0.488,0.026-0.685,0.08  c-0.196,0.053-0.367,0.124-0.511,0.213c-0.143,0.089-0.264,0.192-0.358,0.31s-0.172,0.238-0.229,0.363  c-0.059,0.125-0.1,0.25-0.125,0.375c-0.024,0.125-0.037,0.242-0.037,0.352c0,0.284,0.052,0.529,0.154,0.736  c0.104,0.206,0.24,0.386,0.41,0.541c0.172,0.155,0.364,0.291,0.582,0.408c0.217,0.117,0.438,0.228,0.663,0.333  c0.226,0.104,0.446,0.209,0.663,0.313s0.411,0.223,0.581,0.352c0.171,0.13,0.308,0.278,0.411,0.447s0.154,0.37,0.154,0.605  c0,0.193-0.037,0.365-0.11,0.515c-0.073,0.15-0.173,0.276-0.3,0.378s-0.273,0.179-0.441,0.229  c-0.167,0.052-0.344,0.078-0.531,0.078c-0.254,0-0.49-0.037-0.713-0.111c-0.222-0.073-0.416-0.182-0.584-0.325  c-0.166-0.144-0.302-0.322-0.404-0.537c-0.104-0.214-0.164-0.463-0.184-0.748h-0.369l0.055,2.044h0.498L140.527,83.719z   M138.262,79.363l-0.057-2.03h-5.598l-0.056,2.03h0.356c0-0.284,0.02-0.531,0.059-0.738c0.039-0.208,0.102-0.381,0.189-0.518  c0.088-0.138,0.201-0.24,0.34-0.307c0.14-0.068,0.311-0.102,0.514-0.102l0.994-0.005l-0.014,4.87v0.455  c0,0.14-0.02,0.263-0.058,0.368c-0.036,0.104-0.101,0.188-0.192,0.251c-0.09,0.062-0.225,0.097-0.402,0.103v0.314h2.255v-0.417  l-0.797,0.037c0.019-0.162,0.028-0.416,0.028-0.761l0.014-5.229l0.811-0.005c0.248,0,0.45,0.034,0.609,0.103  c0.16,0.069,0.286,0.173,0.38,0.312c0.095,0.139,0.16,0.313,0.197,0.524c0.038,0.211,0.059,0.459,0.065,0.743H138.262z   M128.689,78.553h0.02l0.431,1.181l0.685,1.838h-2.223c0.088-0.247,0.188-0.528,0.299-0.842c0.11-0.314,0.239-0.677,0.387-1.09  L128.689,78.553z M127.273,82.526c0.053-0.164,0.114-0.345,0.184-0.543l2.498-0.056l0.338,0.901  c0.033,0.091,0.062,0.188,0.084,0.292s0.021,0.2,0,0.291s-0.075,0.168-0.159,0.23s-0.216,0.096-0.394,0.099v0.314h2.199v-0.417  l-0.658,0.037c0.004-0.072-0.002-0.154-0.016-0.248c-0.014-0.095-0.033-0.189-0.061-0.286c-0.027-0.098-0.055-0.192-0.084-0.284  c-0.03-0.092-0.059-0.171-0.088-0.237l-2.142-5.47h-0.229l-1.979,5.39c-0.066,0.179-0.124,0.342-0.176,0.488  c-0.051,0.147-0.107,0.274-0.171,0.38c-0.062,0.106-0.14,0.188-0.229,0.246c-0.091,0.058-0.207,0.087-0.352,0.087v0.314h1.795  v-0.417l-0.75,0.037c0.021-0.054,0.042-0.104,0.061-0.15c0.02-0.047,0.039-0.096,0.057-0.146c0.02-0.05,0.038-0.104,0.057-0.163  c0.018-0.061,0.04-0.128,0.065-0.202C127.171,82.854,127.221,82.691,127.273,82.526 M123.972,78.829  c0-0.172-0.001-0.328-0.003-0.469c-0.001-0.14,0.016-0.262,0.053-0.366c0.035-0.103,0.098-0.185,0.187-0.246  c0.089-0.061,0.225-0.094,0.405-0.101v-0.314h-1.767v0.422l0.688-0.042c-0.019,0.194-0.027,0.426-0.027,0.694l-0.01,4.396h-0.01  l-4.087-5.471h-1.143v0.422l0.642-0.042l-0.01,5.272c0,0.075-0.005,0.157-0.016,0.244c-0.011,0.088-0.038,0.169-0.08,0.244  c-0.042,0.076-0.105,0.139-0.19,0.19c-0.084,0.052-0.2,0.077-0.346,0.077v0.314h1.757v-0.417l-0.693,0.037  c0.009-0.153,0.014-0.31,0.016-0.468c0.002-0.156,0.002-0.318,0.002-0.484l-0.032-4.115h0.014l4.167,5.602h0.465L123.972,78.829z   M112.603,78.833c0-0.172,0.001-0.328,0.002-0.469c0.002-0.14,0.021-0.26,0.059-0.361c0.037-0.1,0.101-0.177,0.192-0.231  c0.091-0.054,0.227-0.082,0.408-0.082c0.59,0,1.024,0.123,1.301,0.368c0.276,0.246,0.414,0.608,0.414,1.09  c0,0.278-0.043,0.514-0.131,0.706c-0.087,0.191-0.21,0.349-0.368,0.471c-0.158,0.122-0.345,0.212-0.562,0.27  c-0.218,0.058-0.457,0.092-0.72,0.101c-0.112,0.006-0.215,0.007-0.307,0.002c-0.092-0.004-0.188-0.01-0.288-0.016V78.833z   M113.442,81.265c0.059,0.076,0.115,0.154,0.169,0.235c0.053,0.082,0.103,0.162,0.15,0.242c0.047,0.079,0.092,0.154,0.136,0.223  l0.642,1.026c0.068,0.106,0.134,0.205,0.197,0.298c0.062,0.093,0.127,0.183,0.194,0.27c0.067,0.088,0.138,0.172,0.213,0.253  c0.075,0.082,0.16,0.163,0.254,0.244h1.209v-0.314c-0.15,0-0.281-0.022-0.391-0.07c-0.111-0.047-0.211-0.111-0.3-0.192  c-0.09-0.081-0.172-0.178-0.247-0.289c-0.075-0.111-0.153-0.231-0.234-0.359l-0.656-1.027c-0.119-0.188-0.228-0.353-0.328-0.493  c-0.1-0.142-0.213-0.257-0.338-0.349c0.366-0.074,0.665-0.181,0.898-0.317c0.233-0.139,0.416-0.294,0.551-0.469  c0.134-0.176,0.226-0.36,0.276-0.557c0.05-0.194,0.075-0.386,0.075-0.574c0-0.265-0.049-0.503-0.147-0.712  c-0.099-0.21-0.254-0.388-0.465-0.535c-0.21-0.146-0.481-0.26-0.81-0.34c-0.33-0.079-0.726-0.124-1.189-0.133  c-0.372-0.006-0.74-0.008-1.106-0.005s-0.73,0.008-1.092,0.014v0.428l0.694-0.042c-0.013,0.097-0.022,0.203-0.026,0.32  c-0.005,0.117-0.007,0.241-0.007,0.373v4.151c0,0.169-0.001,0.325-0.003,0.467c-0.001,0.144-0.021,0.265-0.058,0.369  c-0.038,0.103-0.102,0.184-0.192,0.243c-0.091,0.06-0.227,0.093-0.408,0.099v0.314h2.161v-0.417l-0.694,0.037  c0.012-0.081,0.021-0.185,0.026-0.311c0.004-0.125,0.007-0.274,0.007-0.45v-1.869c0.109,0.01,0.219,0.016,0.328,0.017  c0.109,0.002,0.217-0.001,0.323-0.007C113.32,81.118,113.382,81.188,113.442,81.265 M105.755,80.75  c0.516-0.021,0.797-0.031,0.844-0.031h0.136c0.153,0,0.284,0.009,0.392,0.027c0.107,0.019,0.196,0.059,0.267,0.119  c0.07,0.062,0.122,0.147,0.154,0.258c0.033,0.111,0.05,0.261,0.05,0.448h0.314v-2.021h-0.427l0.07,0.829h-1.8v-1.547  c0-0.196,0.004-0.364,0.012-0.506c0.008-0.141,0.035-0.257,0.082-0.349c0.047-0.092,0.12-0.162,0.218-0.209  c0.099-0.047,0.237-0.075,0.415-0.084l0.886-0.015c0.175,0,0.337,0.019,0.487,0.055c0.15,0.036,0.281,0.103,0.392,0.203  c0.111,0.101,0.198,0.237,0.262,0.413c0.064,0.175,0.096,0.399,0.096,0.675h0.315l-0.047-1.684h-4.618v0.422l0.694-0.042  c-0.012,0.098-0.021,0.204-0.026,0.321c-0.004,0.117-0.007,0.242-0.007,0.373v4.152v0.281c0,0.132-0.005,0.251-0.016,0.358  c-0.011,0.108-0.038,0.201-0.082,0.279c-0.044,0.079-0.11,0.14-0.199,0.186c-0.089,0.045-0.21,0.069-0.364,0.072v0.319h4.955  l0.056-1.87h-0.328c0,0.284-0.033,0.521-0.098,0.71c-0.066,0.188-0.159,0.341-0.279,0.455c-0.12,0.114-0.265,0.194-0.434,0.243  c-0.168,0.049-0.358,0.074-0.567,0.077l-1.837,0.028c0.012-0.081,0.021-0.182,0.025-0.303c0.005-0.12,0.007-0.27,0.007-0.447V80.75  z M102.52,79.363l-0.057-2.03h-5.597l-0.056,2.03h0.357c0-0.284,0.019-0.531,0.058-0.738c0.039-0.208,0.102-0.381,0.19-0.518  c0.087-0.138,0.201-0.24,0.34-0.307c0.139-0.068,0.31-0.102,0.513-0.102l0.994-0.005l-0.014,4.87v0.455  c0,0.14-0.019,0.263-0.056,0.368c-0.038,0.104-0.102,0.188-0.193,0.251c-0.09,0.062-0.225,0.097-0.403,0.103v0.314h2.255v-0.417  l-0.797,0.037c0.019-0.162,0.028-0.416,0.028-0.761l0.014-5.229l0.811-0.005c0.247,0,0.45,0.034,0.61,0.103  c0.159,0.069,0.285,0.173,0.379,0.312c0.094,0.139,0.16,0.313,0.197,0.524c0.038,0.211,0.059,0.459,0.066,0.743H102.52z   M94.496,78.829c0-0.172,0-0.328-0.002-0.469c-0.002-0.14,0.016-0.262,0.052-0.366c0.035-0.103,0.098-0.185,0.187-0.246  c0.089-0.061,0.224-0.094,0.406-0.101v-0.314h-1.768v0.422l0.689-0.042c-0.018,0.194-0.028,0.426-0.028,0.694l-0.009,4.396h-0.009  l-4.088-5.471h-1.144v0.422l0.642-0.042l-0.009,5.272c0,0.075-0.005,0.157-0.016,0.244c-0.011,0.088-0.038,0.169-0.08,0.244  c-0.042,0.076-0.106,0.139-0.19,0.19s-0.2,0.077-0.347,0.077v0.314h1.758v-0.417l-0.694,0.037c0.01-0.153,0.015-0.31,0.017-0.468  c0.001-0.156,0.002-0.318,0.002-0.484l-0.033-4.115h0.014l4.168,5.602h0.464L94.496,78.829z M85.367,82.563  c0,0.169-0.001,0.324-0.002,0.467c-0.002,0.142-0.022,0.265-0.059,0.368c-0.038,0.104-0.102,0.185-0.192,0.244  c-0.091,0.06-0.227,0.093-0.408,0.099v0.314h2.161v-0.417l-0.694,0.037c0.013-0.081,0.021-0.185,0.026-0.311  c0.005-0.125,0.007-0.274,0.007-0.45V78.83c0-0.172,0.001-0.328,0.002-0.469c0.002-0.141,0.021-0.263,0.059-0.366  c0.037-0.104,0.101-0.186,0.192-0.247c0.091-0.061,0.227-0.094,0.408-0.101v-0.314h-2.161v0.422l0.694-0.042  c-0.013,0.098-0.021,0.204-0.026,0.321c-0.005,0.118-0.007,0.242-0.007,0.374V82.563z M75.352,83.719  c0.118,0.081,0.247,0.152,0.386,0.215s0.283,0.113,0.432,0.154c0.148,0.04,0.298,0.071,0.45,0.092  c0.151,0.021,0.299,0.03,0.443,0.03c0.356,0,0.674-0.046,0.953-0.136c0.28-0.091,0.515-0.217,0.706-0.378  c0.19-0.16,0.336-0.353,0.436-0.576s0.15-0.468,0.15-0.733c0-0.284-0.053-0.531-0.157-0.74c-0.105-0.21-0.243-0.394-0.415-0.551  c-0.172-0.158-0.367-0.297-0.586-0.417c-0.219-0.121-0.442-0.233-0.67-0.338s-0.452-0.208-0.671-0.312  c-0.218-0.103-0.414-0.217-0.586-0.343c-0.171-0.125-0.31-0.269-0.414-0.429c-0.105-0.162-0.157-0.353-0.157-0.571  c0-0.15,0.026-0.293,0.079-0.431c0.053-0.136,0.132-0.255,0.235-0.358s0.231-0.186,0.384-0.246c0.153-0.061,0.33-0.092,0.53-0.092  c0.281,0,0.525,0.051,0.731,0.152c0.206,0.103,0.38,0.237,0.52,0.404c0.141,0.168,0.248,0.36,0.321,0.578  c0.074,0.218,0.118,0.443,0.134,0.675h0.347v-2.104h-0.488l0.038,0.412c-0.131-0.097-0.269-0.178-0.413-0.241  c-0.143-0.064-0.288-0.115-0.433-0.152c-0.146-0.038-0.289-0.063-0.429-0.08c-0.141-0.016-0.274-0.023-0.399-0.023  c-0.259,0-0.487,0.026-0.684,0.08c-0.197,0.053-0.367,0.124-0.511,0.213s-0.263,0.192-0.359,0.31  c-0.095,0.117-0.171,0.238-0.229,0.363s-0.099,0.25-0.124,0.375s-0.038,0.242-0.038,0.352c0,0.284,0.052,0.529,0.155,0.736  c0.103,0.206,0.24,0.386,0.41,0.541s0.364,0.291,0.581,0.408s0.438,0.228,0.663,0.333c0.225,0.104,0.446,0.209,0.664,0.313  c0.217,0.104,0.411,0.223,0.581,0.352c0.17,0.13,0.307,0.278,0.41,0.447s0.155,0.37,0.155,0.605c0,0.193-0.037,0.365-0.11,0.515  c-0.074,0.15-0.174,0.276-0.3,0.378c-0.127,0.102-0.274,0.179-0.441,0.229c-0.167,0.052-0.344,0.078-0.532,0.078  c-0.253,0-0.491-0.037-0.712-0.111c-0.222-0.073-0.417-0.182-0.584-0.325s-0.302-0.322-0.406-0.537  c-0.103-0.214-0.164-0.463-0.182-0.748h-0.371l0.057,2.044h0.496L75.352,83.719z M69.359,80.75  c0.516-0.021,0.797-0.031,0.844-0.031h0.136c0.153,0,0.284,0.009,0.391,0.027c0.108,0.019,0.197,0.059,0.268,0.119  c0.07,0.062,0.122,0.147,0.154,0.258c0.033,0.111,0.05,0.261,0.05,0.448h0.314v-2.021h-0.427l0.07,0.829h-1.8v-1.547  c0-0.196,0.004-0.364,0.012-0.506c0.008-0.141,0.035-0.257,0.082-0.349c0.047-0.092,0.12-0.162,0.218-0.209  c0.099-0.047,0.237-0.075,0.415-0.084l0.886-0.015c0.175,0,0.337,0.019,0.487,0.055c0.15,0.036,0.281,0.103,0.392,0.203  c0.111,0.101,0.198,0.237,0.262,0.413c0.064,0.175,0.096,0.399,0.096,0.675h0.314l-0.046-1.684h-4.618v0.422l0.694-0.042  c-0.012,0.098-0.021,0.204-0.026,0.321c-0.004,0.117-0.007,0.242-0.007,0.373v4.152v0.281c0,0.132-0.005,0.251-0.016,0.358  c-0.011,0.108-0.038,0.201-0.082,0.279c-0.044,0.079-0.11,0.14-0.199,0.186c-0.089,0.045-0.211,0.069-0.364,0.072v0.319h4.955  l0.056-1.87h-0.328c0,0.284-0.033,0.521-0.098,0.71c-0.066,0.188-0.159,0.341-0.279,0.455c-0.12,0.114-0.265,0.194-0.434,0.243  c-0.168,0.049-0.358,0.074-0.567,0.077l-1.837,0.028c0.012-0.081,0.021-0.182,0.025-0.303c0.005-0.12,0.007-0.27,0.007-0.447V80.75  z M66.124,79.363l-0.057-2.03H60.47l-0.056,2.03h0.356c0-0.284,0.02-0.531,0.059-0.738c0.039-0.208,0.102-0.381,0.19-0.518  c0.087-0.138,0.201-0.24,0.34-0.307c0.139-0.068,0.31-0.102,0.513-0.102l0.994-0.005l-0.014,4.87v0.455  c0,0.14-0.019,0.263-0.057,0.368c-0.037,0.104-0.101,0.188-0.192,0.251c-0.09,0.062-0.225,0.097-0.403,0.103v0.314h2.255v-0.417  l-0.797,0.037c0.019-0.162,0.028-0.416,0.028-0.761l0.014-5.229l0.811-0.005c0.247,0,0.45,0.034,0.609,0.103  c0.16,0.069,0.286,0.173,0.38,0.312c0.094,0.139,0.16,0.313,0.197,0.524c0.038,0.211,0.059,0.459,0.066,0.743H66.124z   M56.552,78.553h0.019l0.431,1.181l0.684,1.838h-2.222c0.088-0.247,0.187-0.528,0.298-0.842c0.111-0.314,0.24-0.677,0.387-1.09  L56.552,78.553z M55.136,82.526c0.053-0.164,0.114-0.345,0.183-0.543l2.498-0.056l0.338,0.901c0.034,0.091,0.062,0.188,0.084,0.292  s0.022,0.2,0,0.291s-0.075,0.168-0.159,0.23s-0.216,0.096-0.394,0.099v0.314h2.199v-0.417l-0.657,0.037  c0.003-0.072-0.002-0.154-0.016-0.248c-0.014-0.095-0.034-0.189-0.061-0.286c-0.027-0.098-0.055-0.192-0.084-0.284  c-0.03-0.092-0.059-0.171-0.087-0.237l-2.142-5.47h-0.23l-1.978,5.39c-0.066,0.179-0.124,0.342-0.176,0.488  c-0.051,0.147-0.108,0.274-0.171,0.38c-0.062,0.106-0.139,0.188-0.23,0.246c-0.09,0.058-0.207,0.087-0.351,0.087v0.314h1.795  v-0.417l-0.75,0.037c0.022-0.054,0.042-0.104,0.061-0.15s0.038-0.096,0.056-0.146c0.019-0.05,0.038-0.104,0.057-0.163  c0.018-0.061,0.04-0.128,0.065-0.202C55.033,82.854,55.083,82.691,55.136,82.526 M47.206,77.761l0.539-0.024  c0.009,0.072,0.022,0.15,0.04,0.235c0.017,0.084,0.042,0.179,0.075,0.282c0.032,0.105,0.072,0.223,0.119,0.353  c0.047,0.13,0.106,0.276,0.178,0.438l2.18,5.105h0.267c0.235-0.645,0.442-1.213,0.624-1.709c0.181-0.495,0.339-0.929,0.475-1.303  c0.136-0.373,0.285-0.782,0.446-1.227c0.161-0.442,0.295-0.816,0.403-1.12c0.108-0.303,0.194-0.513,0.26-0.63  c0.066-0.118,0.139-0.213,0.22-0.286s0.175-0.128,0.282-0.162c0.106-0.034,0.229-0.055,0.37-0.061v-0.319h-1.945v0.428l0.735-0.042  c-0.075,0.149-0.184,0.431-0.328,0.843c-0.143,0.413-0.642,1.822-1.495,4.228h-0.019c-0.037-0.105-0.085-0.229-0.143-0.37  c-0.058-0.141-0.12-0.291-0.187-0.449c-0.067-0.159-0.139-0.326-0.216-0.501c-0.076-0.176-0.154-0.354-0.232-0.535  c-0.087-0.203-0.169-0.398-0.246-0.586c-0.077-0.188-0.152-0.372-0.225-0.554c-0.073-0.181-0.146-0.361-0.218-0.541  c-0.072-0.18-0.145-0.364-0.22-0.556c-0.066-0.159-0.108-0.301-0.127-0.424s-0.01-0.229,0.026-0.316  c0.036-0.088,0.101-0.156,0.197-0.207c0.095-0.05,0.223-0.079,0.382-0.089l0.009-0.009v-0.319h-2.226V77.761z M44.082,82.563  c0,0.169-0.001,0.324-0.003,0.467c-0.001,0.142-0.021,0.265-0.058,0.368c-0.038,0.104-0.102,0.185-0.193,0.244  c-0.09,0.06-0.226,0.093-0.407,0.099v0.314h2.161v-0.417l-0.694,0.037c0.012-0.081,0.021-0.185,0.026-0.311  c0.004-0.125,0.007-0.274,0.007-0.45V78.83c0-0.172,0-0.328,0.002-0.469s0.021-0.263,0.059-0.366  c0.037-0.104,0.101-0.186,0.192-0.247c0.09-0.061,0.226-0.094,0.408-0.101v-0.314h-2.161v0.422l0.693-0.042  c-0.012,0.098-0.021,0.204-0.025,0.321c-0.005,0.118-0.007,0.242-0.007,0.374V82.563z M37.775,78.833  c0-0.172,0.001-0.328,0.002-0.469c0.002-0.14,0.022-0.26,0.059-0.361c0.038-0.1,0.102-0.177,0.192-0.231  c0.091-0.054,0.227-0.082,0.408-0.082c0.591,0,1.024,0.123,1.301,0.368c0.276,0.246,0.415,0.608,0.415,1.09  c0,0.278-0.044,0.514-0.132,0.706c-0.087,0.191-0.21,0.349-0.368,0.471c-0.157,0.122-0.345,0.212-0.562,0.27  c-0.217,0.058-0.457,0.092-0.72,0.101c-0.112,0.006-0.215,0.007-0.307,0.002c-0.092-0.004-0.188-0.01-0.288-0.016V78.833z   M38.614,81.265c0.059,0.076,0.116,0.154,0.169,0.235c0.053,0.082,0.103,0.162,0.15,0.242c0.047,0.079,0.092,0.154,0.136,0.223  l0.642,1.026c0.069,0.106,0.134,0.205,0.197,0.298c0.062,0.093,0.127,0.183,0.194,0.27c0.068,0.088,0.139,0.172,0.214,0.253  c0.075,0.082,0.159,0.163,0.253,0.244h1.209v-0.314c-0.15,0-0.28-0.022-0.391-0.07c-0.111-0.047-0.211-0.111-0.3-0.192  c-0.089-0.081-0.171-0.178-0.246-0.289s-0.153-0.231-0.235-0.359l-0.656-1.027c-0.119-0.188-0.228-0.353-0.328-0.493  c-0.1-0.142-0.213-0.257-0.338-0.349c0.366-0.074,0.665-0.181,0.898-0.317c0.233-0.139,0.416-0.294,0.551-0.469  c0.134-0.176,0.226-0.36,0.276-0.557c0.05-0.194,0.075-0.386,0.075-0.574c0-0.265-0.049-0.503-0.147-0.712  c-0.099-0.21-0.253-0.388-0.464-0.535c-0.211-0.146-0.482-0.26-0.811-0.34c-0.33-0.079-0.726-0.124-1.189-0.133  c-0.371-0.006-0.74-0.008-1.106-0.005c-0.365,0.003-0.729,0.008-1.092,0.014v0.428l0.694-0.042  c-0.013,0.097-0.021,0.203-0.026,0.32s-0.007,0.241-0.007,0.373v4.151c0,0.169-0.001,0.325-0.002,0.467  c-0.002,0.144-0.021,0.265-0.059,0.369c-0.037,0.103-0.102,0.184-0.192,0.243c-0.091,0.06-0.227,0.093-0.408,0.099v0.314h2.161  v-0.417l-0.694,0.037c0.013-0.081,0.021-0.185,0.026-0.311c0.005-0.125,0.007-0.274,0.007-0.45v-1.869  c0.109,0.01,0.219,0.016,0.328,0.017c0.11,0.002,0.217-0.001,0.324-0.007C38.492,81.118,38.555,81.188,38.614,81.265   M31.264,78.836v-0.465c0-0.139,0.018-0.259,0.054-0.358c0.035-0.1,0.096-0.178,0.182-0.231c0.086-0.055,0.215-0.082,0.387-0.082  c0.294,0,0.563,0.029,0.806,0.089c0.244,0.06,0.453,0.155,0.629,0.288c0.174,0.132,0.31,0.306,0.407,0.518  c0.097,0.212,0.146,0.47,0.146,0.771c0,0.281-0.053,0.532-0.157,0.754c-0.105,0.223-0.247,0.41-0.427,0.564  c-0.18,0.154-0.391,0.271-0.633,0.353c-0.242,0.082-0.499,0.122-0.771,0.122c-0.119,0-0.223-0.001-0.312-0.005  c-0.089-0.003-0.193-0.012-0.311-0.028V78.836z M32.759,81.424c0.331-0.07,0.616-0.164,0.855-0.281  c0.24-0.117,0.438-0.255,0.596-0.413c0.158-0.158,0.282-0.323,0.372-0.497c0.091-0.173,0.151-0.341,0.181-0.504  c0.03-0.162,0.044-0.311,0.044-0.445c0-0.656-0.259-1.155-0.778-1.495c-0.484-0.312-1.192-0.469-2.123-0.469  c-0.378,0-0.745,0.001-1.102,0.002c-0.356,0.002-0.703,0.006-1.04,0.012v0.428l0.693-0.042c-0.012,0.097-0.021,0.203-0.025,0.32  c-0.005,0.117-0.007,0.241-0.007,0.373v4.151c0,0.169-0.001,0.325-0.003,0.467c-0.001,0.144-0.021,0.265-0.058,0.369  c-0.038,0.103-0.102,0.184-0.193,0.243c-0.09,0.06-0.226,0.093-0.407,0.099v0.314h2.353v-0.428l-0.886,0.048  c0.012-0.081,0.021-0.185,0.026-0.311c0.004-0.125,0.007-0.274,0.007-0.451v-1.39c0.062,0.003,0.127,0.004,0.194,0.004h0.148  C32.043,81.528,32.428,81.493,32.759,81.424"></path>	<path fill="#29418F" d="M240.201,52.072c-0.318,0-0.592,0.084-0.82,0.251s-0.372,0.36-0.434,0.582l-2.279,8.664  c-0.068,0.266-0.135,0.549-0.199,0.849s-0.128,0.621-0.188,0.963c-0.138-0.676-0.305-1.28-0.502-1.812l-2.668-8.664  c-0.106-0.244-0.263-0.443-0.468-0.6c-0.204-0.155-0.475-0.233-0.809-0.233h-1.14c-0.32,0-0.592,0.086-0.816,0.257  s-0.37,0.363-0.438,0.576l-2.691,8.664c-0.198,0.554-0.365,1.188-0.501,1.902c-0.069-0.349-0.138-0.685-0.206-1.009  c-0.068-0.322-0.137-0.621-0.205-0.894l-2.28-8.664c-0.067-0.251-0.215-0.452-0.438-0.605c-0.225-0.151-0.504-0.228-0.838-0.228  h-3.237l5.13,16.609h3.488l3.168-10.294c0.062-0.16,0.119-0.336,0.172-0.529c0.053-0.194,0.107-0.397,0.16-0.61  c0.053,0.213,0.105,0.416,0.16,0.61c0.053,0.193,0.109,0.369,0.17,0.529l3.123,10.294h3.49l5.129-16.609H240.201z M214.144,62.6  c-0.213,0.658-0.519,1.214-0.918,1.67s-0.887,0.805-1.465,1.043c-0.577,0.24-1.235,0.36-1.972,0.36c-0.745,0-1.408-0.12-1.989-0.36  c-0.581-0.238-1.072-0.587-1.472-1.043c-0.398-0.456-0.704-1.012-0.916-1.67c-0.213-0.656-0.32-1.399-0.32-2.228  c0-0.821,0.107-1.561,0.32-2.218c0.212-0.657,0.518-1.214,0.916-1.67c0.399-0.456,0.891-0.806,1.472-1.05  c0.581-0.242,1.244-0.363,1.989-0.363c0.736,0,1.395,0.121,1.972,0.363c0.578,0.244,1.065,0.594,1.465,1.05s0.705,1.013,0.918,1.67  c0.214,0.657,0.319,1.396,0.319,2.218C214.463,61.2,214.357,61.943,214.144,62.6 M217.785,57.031  c-0.414-1.033-0.996-1.931-1.75-2.69c-0.752-0.76-1.657-1.357-2.717-1.796c-1.062-0.436-2.238-0.655-3.529-0.655  c-1.293,0-2.471,0.218-3.534,0.65s-1.974,1.03-2.729,1.79c-0.757,0.76-1.342,1.657-1.757,2.689c-0.413,1.034-0.62,2.151-0.62,3.353  s0.207,2.318,0.62,3.351c0.415,1.034,1,1.933,1.757,2.696c0.756,0.764,1.666,1.363,2.729,1.796c1.063,0.434,2.241,0.65,3.534,0.65  c1.291,0,2.468-0.217,3.529-0.65c1.06-0.433,1.965-1.032,2.717-1.796c0.754-0.764,1.336-1.662,1.75-2.696  c0.416-1.032,0.623-2.149,0.623-3.351C218.408,59.179,218.201,58.065,217.785,57.031 M194.057,65.604V52.072h-3.854v16.609h10.01  v-3.078H194.057z M187.208,55.036v-2.964h-10.693v16.609h10.693v-2.964h-6.817v-3.956h5.221v-2.85h-5.221v-3.876H187.208z   M167.341,62.196c0,0.196,0.067,0.36,0.205,0.489c0.137,0.13,0.327,0.194,0.569,0.194h1.642v2.52  c-0.356,0.151-0.724,0.273-1.101,0.364c-0.375,0.091-0.795,0.138-1.258,0.138c-0.754,0-1.439-0.124-2.059-0.371  c-0.62-0.247-1.15-0.606-1.596-1.077s-0.789-1.049-1.032-1.733c-0.243-0.684-0.365-1.467-0.365-2.348  c0-0.798,0.111-1.522,0.331-2.172c0.221-0.65,0.534-1.207,0.941-1.67c0.406-0.464,0.897-0.823,1.476-1.077  c0.577-0.255,1.228-0.382,1.949-0.382c0.388,0,0.737,0.019,1.049,0.057s0.608,0.098,0.89,0.182c0.28,0.084,0.557,0.192,0.826,0.325  s0.557,0.291,0.86,0.474c0.319,0.197,0.618,0.266,0.896,0.204c0.277-0.061,0.504-0.224,0.678-0.489l1.117-1.699  c-0.334-0.319-0.715-0.615-1.14-0.889c-0.426-0.273-0.896-0.51-1.407-0.707c-0.514-0.197-1.074-0.354-1.683-0.468  c-0.608-0.113-1.257-0.171-1.949-0.171c-1.338,0-2.548,0.209-3.631,0.627s-2.006,1.003-2.771,1.757  c-0.764,0.752-1.351,1.646-1.761,2.684c-0.411,1.038-0.616,2.176-0.616,3.415c0,1.216,0.217,2.342,0.65,3.38  c0.434,1.037,1.049,1.934,1.848,2.69c0.797,0.756,1.756,1.349,2.877,1.777c1.121,0.431,2.366,0.646,3.734,0.646  c1.048,0,2.053-0.142,3.016-0.422c0.961-0.281,1.867-0.734,2.719-1.357v-7.011h-5.905V62.196z M154.169,62.902  c-0.175-0.267-0.372-0.496-0.593-0.689c-0.221-0.194-0.455-0.354-0.707-0.485c0.539-0.204,1.017-0.467,1.432-0.785  c0.414-0.32,0.762-0.683,1.043-1.09c0.281-0.406,0.494-0.849,0.639-1.327c0.144-0.479,0.217-0.988,0.217-1.528  c0-0.707-0.123-1.36-0.365-1.961c-0.243-0.601-0.633-1.121-1.169-1.562c-0.535-0.44-1.228-0.784-2.074-1.031  c-0.849-0.247-1.872-0.371-3.073-0.371h-5.402v16.609h3.853v-6.144h0.979c0.297,0,0.525,0.047,0.685,0.142  c0.16,0.096,0.304,0.245,0.433,0.45l2.76,4.823c0.281,0.485,0.744,0.729,1.391,0.729h3.488L154.169,62.902z M147.968,59.881v-4.924  h1.55c0.996,0,1.731,0.205,2.206,0.615c0.476,0.411,0.714,0.98,0.714,1.71c0,0.364-0.055,0.705-0.16,1.02  c-0.106,0.316-0.277,0.592-0.514,0.827c-0.236,0.236-0.538,0.42-0.906,0.553c-0.369,0.134-0.814,0.199-1.34,0.199H147.968z   M137.035,62.6c-0.213,0.658-0.519,1.214-0.918,1.67c-0.398,0.456-0.887,0.805-1.465,1.043c-0.578,0.24-1.234,0.36-1.973,0.36  c-0.744,0-1.406-0.12-1.988-0.36c-0.582-0.238-1.072-0.587-1.471-1.043s-0.705-1.012-0.918-1.67  c-0.213-0.656-0.318-1.399-0.318-2.228c0-0.821,0.105-1.561,0.318-2.218s0.52-1.214,0.918-1.67s0.889-0.806,1.471-1.05  c0.582-0.242,1.244-0.363,1.988-0.363c0.738,0,1.395,0.121,1.973,0.363c0.578,0.244,1.066,0.594,1.465,1.05  c0.399,0.456,0.705,1.013,0.918,1.67s0.318,1.396,0.318,2.218C137.354,61.2,137.248,61.943,137.035,62.6 M140.678,57.031  c-0.415-1.033-0.998-1.931-1.75-2.69c-0.753-0.76-1.659-1.357-2.719-1.796c-1.061-0.436-2.237-0.655-3.529-0.655  s-2.47,0.218-3.533,0.65c-1.064,0.433-1.975,1.03-2.73,1.79s-1.342,1.657-1.756,2.689c-0.414,1.034-0.621,2.151-0.621,3.353  s0.207,2.318,0.621,3.351c0.414,1.034,1,1.933,1.756,2.696s1.666,1.363,2.73,1.796c1.063,0.434,2.241,0.65,3.533,0.65  s2.469-0.217,3.529-0.65c1.06-0.433,1.966-1.032,2.719-1.796c0.752-0.764,1.335-1.662,1.75-2.696  c0.414-1.032,0.621-2.149,0.621-3.351C141.299,59.179,141.092,58.065,140.678,57.031 M123.102,52.072h-13.201v3.056h4.674v13.554  h3.853V55.128h4.674V52.072z M102.036,53.657c-0.297-0.274-0.633-0.52-1.009-0.735c-0.376-0.217-0.781-0.403-1.214-0.559  c-0.433-0.156-0.891-0.274-1.374-0.354c-0.483-0.08-0.979-0.12-1.488-0.12c-0.912,0-1.721,0.14-2.428,0.416  c-0.707,0.278-1.303,0.648-1.79,1.112c-0.486,0.463-0.855,0.991-1.105,1.584c-0.251,0.593-0.377,1.201-0.377,1.824  c0,0.774,0.107,1.427,0.32,1.955c0.212,0.528,0.492,0.969,0.837,1.322c0.346,0.354,0.739,0.639,1.18,0.855  c0.441,0.216,0.893,0.399,1.357,0.547c0.463,0.148,0.916,0.283,1.357,0.405c0.44,0.121,0.834,0.262,1.179,0.421  c0.346,0.16,0.625,0.361,0.838,0.604s0.32,0.559,0.32,0.946c0,0.669-0.194,1.157-0.582,1.465c-0.387,0.308-0.931,0.461-1.63,0.461  c-0.517,0-0.965-0.071-1.345-0.216c-0.38-0.144-0.717-0.304-1.009-0.479c-0.293-0.176-0.555-0.334-0.787-0.479  c-0.232-0.144-0.461-0.216-0.689-0.216c-0.175,0-0.337,0.043-0.485,0.131c-0.148,0.087-0.268,0.195-0.359,0.325l-1.14,1.801  c0.327,0.327,0.71,0.623,1.151,0.89c0.441,0.266,0.912,0.495,1.414,0.689c0.502,0.193,1.02,0.344,1.556,0.45  c0.536,0.105,1.062,0.16,1.579,0.16c0.942,0,1.784-0.144,2.525-0.429c0.741-0.284,1.364-0.676,1.87-1.174  c0.505-0.498,0.891-1.081,1.157-1.75s0.399-1.387,0.399-2.154c0-0.691-0.107-1.282-0.319-1.772  c-0.213-0.491-0.493-0.907-0.838-1.249c-0.346-0.342-0.741-0.623-1.186-0.843c-0.445-0.221-0.899-0.412-1.362-0.576  c-0.464-0.163-0.918-0.311-1.363-0.445c-0.444-0.132-0.839-0.278-1.185-0.438c-0.346-0.16-0.625-0.351-0.838-0.57  c-0.213-0.221-0.319-0.498-0.319-0.833c0-0.523,0.176-0.939,0.53-1.248c0.353-0.308,0.891-0.462,1.613-0.462  c0.418,0,0.79,0.056,1.117,0.166s0.618,0.233,0.872,0.37c0.255,0.137,0.483,0.261,0.684,0.371c0.202,0.109,0.39,0.165,0.565,0.165  c0.197,0,0.359-0.046,0.484-0.137c0.125-0.092,0.245-0.229,0.359-0.41L102.036,53.657z M88.928,53.657  c-0.296-0.274-0.632-0.52-1.009-0.735c-0.376-0.217-0.78-0.403-1.214-0.559c-0.433-0.156-0.891-0.274-1.373-0.354  c-0.483-0.08-0.979-0.12-1.488-0.12c-0.912,0-1.721,0.14-2.428,0.416c-0.707,0.278-1.304,0.648-1.79,1.112  c-0.486,0.463-0.855,0.991-1.106,1.584c-0.251,0.593-0.376,1.201-0.376,1.824c0,0.774,0.106,1.427,0.319,1.955  s0.492,0.969,0.838,1.322s0.739,0.639,1.18,0.855c0.441,0.216,0.893,0.399,1.357,0.547c0.463,0.148,0.915,0.283,1.356,0.405  c0.441,0.121,0.834,0.262,1.18,0.421c0.346,0.16,0.625,0.361,0.838,0.604s0.319,0.559,0.319,0.946c0,0.669-0.194,1.157-0.581,1.465  c-0.388,0.308-0.931,0.461-1.63,0.461c-0.517,0-0.966-0.071-1.346-0.216c-0.38-0.144-0.716-0.304-1.009-0.479  c-0.292-0.176-0.554-0.334-0.786-0.479c-0.232-0.144-0.462-0.216-0.69-0.216c-0.175,0-0.336,0.043-0.484,0.131  c-0.149,0.087-0.268,0.195-0.359,0.325l-1.14,1.801c0.326,0.327,0.71,0.623,1.151,0.89c0.441,0.266,0.912,0.495,1.414,0.689  c0.501,0.193,1.02,0.344,1.556,0.45c0.535,0.105,1.062,0.16,1.579,0.16c0.942,0,1.784-0.144,2.525-0.429  c0.741-0.284,1.364-0.676,1.869-1.174c0.506-0.498,0.891-1.081,1.157-1.75s0.399-1.387,0.399-2.154  c0-0.691-0.106-1.282-0.319-1.772c-0.213-0.491-0.492-0.907-0.838-1.249c-0.346-0.342-0.741-0.623-1.185-0.843  c-0.445-0.221-0.899-0.412-1.363-0.576c-0.463-0.163-0.917-0.311-1.362-0.445c-0.445-0.132-0.84-0.278-1.186-0.438  c-0.345-0.16-0.625-0.351-0.837-0.57c-0.213-0.221-0.32-0.498-0.32-0.833c0-0.523,0.177-0.939,0.53-1.248  c0.354-0.308,0.891-0.462,1.614-0.462c0.417,0,0.79,0.056,1.117,0.166c0.326,0.11,0.617,0.233,0.872,0.37  c0.254,0.137,0.482,0.261,0.684,0.371c0.201,0.109,0.389,0.165,0.564,0.165c0.198,0,0.359-0.046,0.485-0.137  c0.125-0.092,0.245-0.229,0.359-0.41L88.928,53.657z M71.869,62.6c-0.212,0.658-0.518,1.214-0.917,1.67s-0.888,0.805-1.465,1.043  c-0.578,0.24-1.235,0.36-1.972,0.36c-0.745,0-1.408-0.12-1.99-0.36c-0.581-0.238-1.071-0.587-1.47-1.043s-0.705-1.012-0.918-1.67  c-0.213-0.656-0.319-1.399-0.319-2.228c0-0.821,0.106-1.561,0.319-2.218s0.519-1.214,0.918-1.67s0.889-0.806,1.47-1.05  c0.582-0.242,1.245-0.363,1.99-0.363c0.737,0,1.394,0.121,1.972,0.363c0.577,0.244,1.066,0.594,1.465,1.05s0.705,1.013,0.917,1.67  c0.213,0.657,0.32,1.396,0.32,2.218C72.189,61.2,72.082,61.943,71.869,62.6 M75.512,57.031c-0.415-1.033-0.998-1.931-1.75-2.69  c-0.753-0.76-1.659-1.357-2.719-1.796c-1.06-0.436-2.236-0.655-3.528-0.655s-2.47,0.218-3.534,0.65  c-1.065,0.433-1.975,1.03-2.731,1.79c-0.756,0.76-1.341,1.657-1.755,2.689c-0.415,1.034-0.622,2.151-0.622,3.353  s0.207,2.318,0.622,3.351c0.414,1.034,0.999,1.933,1.755,2.696c0.756,0.764,1.666,1.363,2.731,1.796  c1.064,0.434,2.242,0.65,3.534,0.65s2.468-0.217,3.528-0.65c1.06-0.433,1.966-1.032,2.719-1.796  c0.752-0.764,1.335-1.662,1.75-2.696c0.414-1.032,0.621-2.149,0.621-3.351C76.133,59.179,75.926,58.065,75.512,57.031   M51.783,65.604V52.072H47.93v16.609h10.009v-3.078H51.783z M40.31,52.072v6.942h-6.749v-6.942h-3.876v16.609h3.876V61.66h6.749  v7.021h3.876V52.072H40.31z M25.217,64.458c-0.107,0.05-0.206,0.113-0.297,0.188c-0.228,0.205-0.452,0.374-0.672,0.508  c-0.221,0.133-0.456,0.238-0.707,0.318s-0.521,0.138-0.81,0.171c-0.288,0.034-0.608,0.052-0.957,0.052  c-0.608,0-1.178-0.117-1.71-0.354c-0.532-0.234-0.998-0.579-1.397-1.032c-0.399-0.451-0.714-1.009-0.946-1.67  s-0.348-1.417-0.348-2.268c0-0.844,0.105-1.594,0.314-2.252c0.209-0.657,0.505-1.212,0.889-1.664  c0.384-0.452,0.84-0.796,1.368-1.032c0.528-0.235,1.112-0.353,1.75-0.353c0.403,0,0.754,0.029,1.055,0.091  c0.3,0.061,0.562,0.135,0.786,0.222c0.224,0.088,0.418,0.184,0.582,0.285c0.163,0.103,0.313,0.198,0.45,0.285  c0.137,0.088,0.266,0.162,0.387,0.222c0.122,0.062,0.251,0.092,0.388,0.092c0.205,0,0.365-0.044,0.479-0.132  c0.114-0.087,0.213-0.184,0.296-0.29l1.3-1.744c-0.312-0.319-0.669-0.615-1.072-0.89c-0.403-0.273-0.843-0.507-1.322-0.701  c-0.479-0.193-0.994-0.345-1.545-0.456c-0.551-0.109-1.138-0.165-1.761-0.165c-1.224,0-2.345,0.209-3.363,0.627  c-1.019,0.418-1.893,1.003-2.622,1.757c-0.73,0.752-1.296,1.646-1.699,2.684c-0.403,1.038-0.604,2.176-0.604,3.415  c0,1.216,0.186,2.342,0.559,3.38c0.372,1.037,0.906,1.934,1.601,2.69c0.696,0.756,1.543,1.349,2.543,1.777  c0.999,0.431,2.129,0.646,3.391,0.646c1.376,0,2.567-0.224,3.574-0.667c1.007-0.445,1.845-1.104,2.514-1.979l-1.528-1.607  c-0.084-0.083-0.171-0.143-0.262-0.177s-0.183-0.052-0.274-0.052C25.433,64.384,25.323,64.409,25.217,64.458 M11.423,53.657  c-0.296-0.274-0.633-0.52-1.009-0.735c-0.376-0.217-0.781-0.403-1.214-0.559c-0.433-0.156-0.891-0.274-1.374-0.354  c-0.482-0.08-0.978-0.12-1.487-0.12c-0.912,0-1.722,0.14-2.429,0.416c-0.706,0.278-1.303,0.648-1.789,1.112  c-0.487,0.463-0.855,0.991-1.106,1.584s-0.376,1.201-0.376,1.824c0,0.774,0.106,1.427,0.319,1.955  C1.17,59.31,1.45,59.75,1.796,60.104c0.345,0.354,0.739,0.639,1.18,0.855c0.44,0.216,0.893,0.399,1.356,0.547  c0.464,0.148,0.916,0.283,1.357,0.405c0.44,0.121,0.834,0.262,1.18,0.421c0.345,0.16,0.625,0.361,0.838,0.604  c0.212,0.243,0.319,0.559,0.319,0.946c0,0.669-0.194,1.157-0.582,1.465c-0.387,0.308-0.931,0.461-1.63,0.461  c-0.517,0-0.965-0.071-1.345-0.216c-0.38-0.144-0.716-0.304-1.009-0.479c-0.293-0.176-0.555-0.334-0.787-0.479  c-0.231-0.144-0.461-0.216-0.689-0.216c-0.175,0-0.337,0.043-0.485,0.131c-0.148,0.087-0.268,0.195-0.359,0.325L0,66.676  c0.327,0.327,0.711,0.623,1.152,0.89c0.44,0.266,0.912,0.495,1.413,0.689c0.502,0.193,1.02,0.344,1.556,0.45  c0.536,0.105,1.062,0.16,1.579,0.16c0.942,0,1.784-0.144,2.525-0.429c0.741-0.284,1.364-0.676,1.87-1.174  c0.505-0.498,0.891-1.081,1.157-1.75c0.266-0.669,0.399-1.387,0.399-2.154c0-0.691-0.107-1.282-0.319-1.772  c-0.213-0.491-0.492-0.907-0.838-1.249c-0.346-0.342-0.741-0.623-1.186-0.843c-0.444-0.221-0.899-0.412-1.362-0.576  c-0.464-0.163-0.918-0.311-1.362-0.445c-0.445-0.132-0.84-0.278-1.186-0.438c-0.346-0.16-0.625-0.351-0.838-0.57  c-0.213-0.221-0.319-0.498-0.319-0.833c0-0.523,0.177-0.939,0.53-1.248c0.353-0.308,0.891-0.462,1.613-0.462  c0.418,0,0.791,0.056,1.117,0.166c0.327,0.11,0.618,0.233,0.873,0.37c0.254,0.137,0.482,0.261,0.683,0.371  c0.202,0.109,0.39,0.165,0.565,0.165c0.197,0,0.359-0.046,0.484-0.137c0.126-0.092,0.245-0.229,0.359-0.41L11.423,53.657z"></path></g></svg>